<?xml version="1.0" encoding="UTF-8"?>
<svg version="1.1" xmlns="http://www.w3.org/2000/svg" width="1500" height="1500">
<path d="M0 0 C7.76957511 1.59506583 14.06587168 0.15144961 21.625 -1.875 C24.95642701 -2.42364747 28.25448326 -2.70361779 31.625 -2.875 C32.59566406 -2.92785156 33.56632812 -2.98070312 34.56640625 -3.03515625 C47.41173945 -3.39766259 61.88039743 -2.11126958 71.6484375 7.015625 C78.18391717 14.00458693 79.00403876 20.28976449 78.89453125 29.6875 C78.55189534 34.05734929 77.51176328 37.19424318 75.625 41.125 C76.32238281 40.9084375 77.01976562 40.691875 77.73828125 40.46875 C86.26152573 38.22086135 94.46328151 37.7644236 103.25 37.6875 C104.38091064 37.66558594 105.51182129 37.64367187 106.67700195 37.62109375 C120.36770496 37.65290716 130.31044514 41.81044514 139.9375 51.4375 C149.34708833 66.42314068 148.05874803 85.07025969 144.53588867 101.7421875 C141.26962536 115.73849086 135.44072275 128.55764795 127.99609375 140.8046875 C124.36059754 146.9570657 125.19346833 153.84017082 126.734375 160.56640625 C130.7202149 176.03592475 136.74320484 189.29236697 144.625 203.125 C145.71965841 205.09643047 146.81209224 207.06909774 147.90234375 209.04296875 C152.8018705 217.86313657 157.85005332 226.56308716 163.1875 235.125 C187.83882146 274.95390658 204.54175929 320.30680397 220.625 364.125 C220.90365906 364.88321045 221.18231812 365.6414209 221.46942139 366.42260742 C261.44582981 475.32697949 261.44582981 475.32697949 252.23828125 495.32421875 C247.81261031 503.00752642 241.36427478 507.88686431 233.01511109 510.65964949 C229.52855675 511.33847561 226.06170783 511.26750945 222.52384758 511.26201439 C221.69661344 511.26466622 220.86937929 511.26731804 220.01707745 511.27005023 C217.227021 511.27774949 214.43700851 511.27830264 211.64694214 511.27890015 C209.6335886 511.28291435 207.62023587 511.2873525 205.60688412 511.2921797 C200.05985865 511.30415563 194.51284188 511.30979601 188.96580601 511.31436086 C182.98879995 511.32031302 177.01180433 511.33192377 171.0348053 511.34265137 C157.27625196 511.36602355 143.51769544 511.38058308 129.75912886 511.39288078 C124.99885502 511.39713588 120.23858156 511.40170161 115.4783082 511.4064641 C90.16605822 511.43172396 64.85380759 511.45377143 39.54154778 511.46619225 C33.67743808 511.46911356 27.8133284 511.47208108 21.94921875 511.47509766 C20.85641034 511.47565402 20.85641034 511.47565402 19.74152499 511.47622162 C-3.87926633 511.48837705 -27.49998314 511.51932147 -51.12073947 511.56101918 C-75.40521693 511.60381036 -99.68965504 511.63043366 -123.97417123 511.63566696 C-127.40444097 511.6364074 -130.83471064 511.63731808 -134.26498032 511.63832474 C-134.94008067 511.63851535 -135.61518102 511.63870597 -136.31073896 511.63890236 C-147.17275705 511.64241512 -158.03468175 511.66270911 -168.89666555 511.68912137 C-179.81616151 511.71527298 -190.7355445 511.72257626 -201.65506692 511.71202008 C-207.57022513 511.70682716 -213.48508654 511.70976194 -219.4002018 511.73448563 C-224.81630387 511.75693478 -230.23189518 511.75627155 -235.64800595 511.73728175 C-237.60633559 511.73447571 -239.56469956 511.7401137 -241.52297391 511.75509469 C-261.04449706 511.89529343 -261.04449706 511.89529343 -268.375 506.125 C-273.69859327 500.7157205 -276.17812597 495.19647502 -276.47265625 487.609375 C-274.92174497 441.20610946 -249.98862956 389.8859897 -233.52755737 347.27627563 C-227.54330067 331.77201601 -227.54330067 331.77201601 -222.9375 315.8125 C-222.74381836 315.01884033 -222.55013672 314.22518066 -222.35058594 313.4074707 C-221.14875741 307.78089769 -220.8406735 302.31570169 -223.40625 296.98046875 C-229.20588201 290.39418453 -236.68231732 286.12697998 -244.07568359 281.55273438 C-292.33816502 251.58469537 -292.33816502 251.58469537 -298.375 226.125 C-298.375 225.465 -298.375 224.805 -298.375 224.125 C-299.25478516 223.71314453 -299.25478516 223.71314453 -300.15234375 223.29296875 C-307.81795572 219.26481764 -312.43196947 212.50292147 -317.30029297 205.60571289 C-320.32483357 201.38069947 -323.42146767 198.10800772 -327.46875 194.83203125 C-337.13487896 186.176092 -342.71176635 172.9727599 -343.49780273 160.11645508 C-344.49379504 132.75845368 -335.14503511 105.2329904 -319.09765625 82.96484375 C-316.94176461 79.41080016 -316.49260609 76.04311354 -316 72 C-313.99492466 58.93530671 -309.06600231 50.14742139 -298.375 42.125 C-296.43812938 40.84242733 -294.47850465 39.64875666 -292.46875 38.484375 C-289.91307181 36.8250914 -287.73219179 34.87939945 -285.4375 32.875 C-241.52809459 -3.29627249 -164.75634189 -2.52568911 -110.68878174 -4.77606201 C-108.53031053 -4.86835888 -106.37233227 -4.96765621 -104.21435547 -5.07080078 C-69.70213473 -6.7018131 -33.96537974 -7.03836411 0 0 Z " fill="#EC741C" transform="translate(793.375,302.875)"/>
<path d="M0 0 C22.11 0 44.22 0 67 0 C80.33333333 24.44444444 80.33333333 24.44444444 85.4765625 35.17578125 C86.69857464 38.08882333 86.69857464 38.08882333 89 39 C89.27094482 38.12907715 89.54188965 37.2581543 89.82104492 36.36083984 C90.95217647 33.13633022 92.2870711 30.25460502 93.86328125 27.2265625 C94.42080078 26.1540625 94.97832031 25.0815625 95.55273438 23.9765625 C96.42381836 22.31753906 96.42381836 22.31753906 97.3125 20.625 C97.88162109 19.52671875 98.45074219 18.4284375 99.03710938 17.296875 C100.66468763 14.17999725 102.29032414 11.07273383 104 8 C104.25620621 7.29740051 104.51241241 6.59480103 104.77638245 5.87091064 C105.91327095 3.2856824 106.81996359 1.81809102 109 0 C114.11007772 -1.14957533 119.16448216 -0.93107 124.36328125 -0.78125 C125.8806815 -0.76631962 127.39812044 -0.75493634 128.91557312 -0.74694824 C132.89998799 -0.71647437 136.88205092 -0.63796038 140.86553955 -0.54931641 C144.93412455 -0.46731754 149.00309161 -0.4309073 153.07226562 -0.390625 C161.0492537 -0.30495453 169.02433391 -0.16851311 177 0 C176.15684869 3.83954251 174.5983337 6.42319906 172.4140625 9.71484375 C172.04524963 10.27425659 171.67643677 10.83366943 171.29644775 11.41003418 C170.07780142 13.2560003 168.85136295 15.09665338 167.625 16.9375 C166.77039235 18.22949994 165.91639761 19.52190548 165.06298828 20.81469727 C163.28072417 23.51348146 161.49580011 26.21047737 159.70898438 28.90625 C155.81141298 34.79072258 151.9444483 40.695222 148.07830811 46.60037231 C146.54286534 48.94458026 145.00504807 51.28722435 143.46652222 53.62940979 C142.38056624 55.28815833 141.30301883 56.95240194 140.22558594 58.61669922 C138.65642874 61.02882061 137.03141788 63.39291963 135.37597656 65.74658203 C134.73524704 66.68087791 134.73524704 66.68087791 134.08157349 67.63404846 C133.26169362 68.82923132 132.42601683 70.01378219 131.57247925 71.18516541 C129.57469405 74.13980998 128.91092365 75.52226467 129.57470703 79.08227539 C130.94234328 81.88197064 132.35659539 84.5540163 133.984375 87.2109375 C134.5832251 88.19698975 135.1820752 89.18304199 135.79907227 90.19897461 C136.44287842 91.24706299 137.08668457 92.29515137 137.75 93.375 C139.10938585 95.6124841 140.46742414 97.85078739 141.82421875 100.08984375 C142.17028671 100.65987625 142.51635468 101.22990875 142.87290955 101.81721497 C147.09105886 108.77663131 151.17160115 115.81585527 155.25488281 122.85498047 C155.79081055 123.77811035 156.32673828 124.70124023 156.87890625 125.65234375 C157.64871826 126.98048096 157.64871826 126.98048096 158.43408203 128.33544922 C160.54287001 131.92374232 162.72188853 135.46807173 164.91381836 139.00610352 C166 141 166 141 166 143 C175.9 141.02 175.9 141.02 186 139 C186 93.13 186 47.26 186 0 C205.47 0 224.94 0 245 0 C245 43.56 245 87.12 245 132 C246.32 131.67 247.64 131.34 249 131 C253.29 131 257.58 131 262 131 C262 87.77 262 44.54 262 0 C297.64 0 333.28 0 370 0 C370 15.18 370 30.36 370 46 C353.17 46 336.34 46 319 46 C319 50.95 319 55.9 319 61 C332.86 61 346.72 61 361 61 C361 73.87 361 86.74 361 100 C347.14 100 333.28 100 319 100 C319 105.61 319 111.22 319 117 C336.49 117 353.98 117 372 117 C372 125.58 372 134.16 372 143 C373.98 143.66 375.96 144.32 378 145 C379.71817391 145.8577951 381.40818634 146.77471525 383.0625 147.75 C383.87847656 148.21921875 384.69445313 148.6884375 385.53515625 149.171875 C388.54825217 151.4066276 390.73579618 154.04801024 393 157 C393.79921875 158.02738281 394.5984375 159.05476562 395.421875 160.11328125 C404.09299858 172.02880174 404.09299858 172.02880174 403 179 C400.9726737 187.03133111 394.06356716 192.93692285 387.21533203 197.07958984 C382.59833576 199.64986419 377.82899963 201.86114395 373 204 C371.80375 204.53496094 370.6075 205.06992188 369.375 205.62109375 C302.34018666 233.9197814 193.62183832 242.13657861 125 216 C115.13500542 211.88355749 105.44418243 207.28613192 101 197 C98.78375872 188.86406163 102.94494935 181.64377352 106.76171875 174.671875 C109.58141343 169.84368074 112.92161699 165.5391915 118 163 C117.33726578 163.02710556 116.67453156 163.05421112 115.99171448 163.08213806 C108.97933314 162.95825006 108.97933314 162.95825006 106.37545776 160.41043091 C105.01998629 158.14329896 103.94327418 155.86924651 102.90234375 153.44140625 C102.29453819 152.15217506 102.29453819 152.15217506 101.67445374 150.8368988 C100.39158444 148.09425296 99.16454396 145.33050527 97.9375 142.5625 C97.07975072 140.70342272 96.21845892 138.84597554 95.35351562 136.99023438 C93.46067813 132.91265476 91.60276301 128.82118572 89.77427673 124.71437073 C89.20950009 123.46386621 88.61363413 122.22726825 88 121 C82.08802372 132.00633882 76.42805715 143.08718575 71.13720703 154.40698242 C70.74001465 155.25494385 70.34282227 156.10290527 69.93359375 156.9765625 C69.58353271 157.73018066 69.23347168 158.48379883 68.87280273 159.26025391 C68 161 68 161 67 162 C64.88318683 162.0942174 62.76319242 162.11742761 60.64428711 162.11352539 C59.98089828 162.11367142 59.31750946 162.11381744 58.63401794 162.1139679 C56.43176044 162.11326881 54.22958655 162.10547665 52.02734375 162.09765625 C50.50419664 162.09579206 48.98104893 162.09436816 47.457901 162.09336853 C43.44162349 162.08954346 39.42538192 162.07971328 35.40911865 162.06866455 C31.31376634 162.05845019 27.21840824 162.05387086 23.12304688 162.04882812 C15.08201472 162.038091 7.04101183 162.02101472 -1 162 C7.80503663 145.83495732 16.75536821 129.75717005 26.0625 113.875 C30.85645441 105.67995678 35.64831765 97.48407995 40.375 89.25 C40.940979 88.2791748 41.50695801 87.30834961 42.09008789 86.30810547 C42.60434326 85.40721191 43.11859863 84.50631836 43.6484375 83.578125 C44.33172119 82.39331543 44.33172119 82.39331543 45.02880859 81.18457031 C46.27082214 78.78927434 46.27082214 78.78927434 46 75 C44.88320439 72.65131898 44.88320439 72.65131898 43.28125 70.23828125 C42.68691162 69.29710449 42.09257324 68.35592773 41.48022461 67.38623047 C40.50001343 65.86473389 40.50001343 65.86473389 39.5 64.3125 C38.82654541 63.2517627 38.15309082 62.19102539 37.45922852 61.09814453 C35.67171079 58.28697375 33.87652115 55.48106033 32.07647705 52.67791748 C30.3572156 49.99808438 28.64592099 47.31317354 26.93359375 44.62890625 C21.61322404 36.29860885 16.27878398 27.97759126 10.9140625 19.67578125 C9.63012065 17.6797439 8.34626288 15.68365246 7.0625 13.6875 C6.16615845 12.30860596 6.16615845 12.30860596 5.25170898 10.90185547 C4.70587158 10.05123535 4.16003418 9.20061523 3.59765625 8.32421875 C3.11820557 7.58260498 2.63875488 6.84099121 2.14477539 6.0769043 C1 4 1 4 0 0 Z " fill="#171B39" transform="translate(825,840)"/>
<path d="M0 0 C7.76957511 1.59506583 14.06587168 0.15144961 21.625 -1.875 C24.95642701 -2.42364747 28.25448326 -2.70361779 31.625 -2.875 C32.59566406 -2.92785156 33.56632812 -2.98070312 34.56640625 -3.03515625 C47.41173945 -3.39766259 61.88039743 -2.11126958 71.6484375 7.015625 C78.18391717 14.00458693 79.00403876 20.28976449 78.89453125 29.6875 C78.55189534 34.05734929 77.51176328 37.19424318 75.625 41.125 C76.32238281 40.9084375 77.01976562 40.691875 77.73828125 40.46875 C86.26152573 38.22086135 94.46328151 37.7644236 103.25 37.6875 C104.38091064 37.66558594 105.51182129 37.64367187 106.67700195 37.62109375 C120.36770496 37.65290716 130.31044514 41.81044514 139.9375 51.4375 C149.34708833 66.42314068 148.05874803 85.07025969 144.53588867 101.7421875 C141.26962536 115.73849086 135.44072275 128.55764795 127.99609375 140.8046875 C124.36059754 146.9570657 125.19346833 153.84017082 126.734375 160.56640625 C130.7202149 176.03592475 136.74320484 189.29236697 144.625 203.125 C145.71965841 205.09643047 146.81209224 207.06909774 147.90234375 209.04296875 C152.8018705 217.86313657 157.85005332 226.56308716 163.1875 235.125 C187.83882146 274.95390658 204.54175929 320.30680397 220.625 364.125 C220.90365906 364.88321045 221.18231812 365.6414209 221.46942139 366.42260742 C261.44582981 475.32697949 261.44582981 475.32697949 252.23828125 495.32421875 C247.81261031 503.00752642 241.36427478 507.88686431 233.01511109 510.65964949 C229.52855675 511.33847561 226.06170783 511.26750945 222.52384758 511.26201439 C221.69661344 511.26466622 220.86937929 511.26731804 220.01707745 511.27005023 C217.227021 511.27774949 214.43700851 511.27830264 211.64694214 511.27890015 C209.6335886 511.28291435 207.62023587 511.2873525 205.60688412 511.2921797 C200.05985865 511.30415563 194.51284188 511.30979601 188.96580601 511.31436086 C182.98879995 511.32031302 177.01180433 511.33192377 171.0348053 511.34265137 C157.27625196 511.36602355 143.51769544 511.38058308 129.75912886 511.39288078 C124.99885502 511.39713588 120.23858156 511.40170161 115.4783082 511.4064641 C90.16605822 511.43172396 64.85380759 511.45377143 39.54154778 511.46619225 C33.67743808 511.46911356 27.8133284 511.47208108 21.94921875 511.47509766 C20.85641034 511.47565402 20.85641034 511.47565402 19.74152499 511.47622162 C-3.87926633 511.48837705 -27.49998314 511.51932147 -51.12073947 511.56101918 C-75.40521693 511.60381036 -99.68965504 511.63043366 -123.97417123 511.63566696 C-127.40444097 511.6364074 -130.83471064 511.63731808 -134.26498032 511.63832474 C-134.94008067 511.63851535 -135.61518102 511.63870597 -136.31073896 511.63890236 C-147.17275705 511.64241512 -158.03468175 511.66270911 -168.89666555 511.68912137 C-179.81616151 511.71527298 -190.7355445 511.72257626 -201.65506692 511.71202008 C-207.57022513 511.70682716 -213.48508654 511.70976194 -219.4002018 511.73448563 C-224.81630387 511.75693478 -230.23189518 511.75627155 -235.64800595 511.73728175 C-237.60633559 511.73447571 -239.56469956 511.7401137 -241.52297391 511.75509469 C-261.04449706 511.89529343 -261.04449706 511.89529343 -268.375 506.125 C-273.69859327 500.7157205 -276.17812597 495.19647502 -276.47265625 487.609375 C-274.92174497 441.20610946 -249.98862956 389.8859897 -233.52755737 347.27627563 C-227.54330067 331.77201601 -227.54330067 331.77201601 -222.9375 315.8125 C-222.74381836 315.01884033 -222.55013672 314.22518066 -222.35058594 313.4074707 C-221.14875741 307.78089769 -220.8406735 302.31570169 -223.40625 296.98046875 C-229.20588201 290.39418453 -236.68231732 286.12697998 -244.07568359 281.55273438 C-292.33816502 251.58469537 -292.33816502 251.58469537 -298.375 226.125 C-298.375 225.465 -298.375 224.805 -298.375 224.125 C-299.25478516 223.71314453 -299.25478516 223.71314453 -300.15234375 223.29296875 C-307.81795572 219.26481764 -312.43196947 212.50292147 -317.30029297 205.60571289 C-320.32483357 201.38069947 -323.42146767 198.10800772 -327.46875 194.83203125 C-337.13487896 186.176092 -342.71176635 172.9727599 -343.49780273 160.11645508 C-344.49379504 132.75845368 -335.14503511 105.2329904 -319.09765625 82.96484375 C-316.94176461 79.41080016 -316.49260609 76.04311354 -316 72 C-313.99492466 58.93530671 -309.06600231 50.14742139 -298.375 42.125 C-296.43812938 40.84242733 -294.47850465 39.64875666 -292.46875 38.484375 C-289.91307181 36.8250914 -287.73219179 34.87939945 -285.4375 32.875 C-241.52809459 -3.29627249 -164.75634189 -2.52568911 -110.68878174 -4.77606201 C-108.53031053 -4.86835888 -106.37233227 -4.96765621 -104.21435547 -5.07080078 C-69.70213473 -6.7018131 -33.96537974 -7.03836411 0 0 Z M-277.28515625 47.9453125 C-278.4082799 49.12727862 -279.52447281 50.31587855 -280.6328125 51.51171875 C-282.58509555 53.31955036 -284.50252702 54.36827539 -286.875 55.5625 C-293.43402113 58.95973659 -298.01390182 64.11445986 -300.375 71.125 C-300.512641 73.15579662 -300.58928139 75.19129809 -300.6171875 77.2265625 C-301.09315081 84.54733145 -303.65190303 89.37532468 -307.5 95.5 C-308.6939518 97.50552688 -309.88406912 99.51334158 -311.0703125 101.5234375 C-311.64297852 102.4834668 -312.21564453 103.44349609 -312.80566406 104.43261719 C-324.03028658 123.68979471 -330.52193711 145.24337736 -326.796875 167.59375 C-323.93852246 176.63653803 -316.89155575 183.61620538 -309.375 189.125 C-308.715 189.125 -308.055 189.125 -307.375 189.125 C-307.189375 189.929375 -307.00375 190.73375 -306.8125 191.5625 C-302.60199198 201.99723728 -292.95484545 210.51728559 -283.375 216.125 C-282.715 216.125 -282.055 216.125 -281.375 216.125 C-281.705 216.785 -282.035 217.445 -282.375 218.125 C-283.05499968 226.45499602 -280.96884144 232.64978541 -275.625 239 C-265.42043872 249.59516649 -252.58588214 256.94999104 -240.16992188 264.63183594 C-209.81926462 283.44924344 -209.81926462 283.44924344 -206.375 297.125 C-203.60030506 318.35403393 -213.41661045 339.5235149 -220.77441406 358.90380859 C-249.79988146 422.89862985 -249.79988146 422.89862985 -260.375 490.125 C-259.43902105 492.39139776 -259.43902105 492.39139776 -257.375 494.125 C-254.60749162 494.5249925 -252.23390917 494.66219012 -249.46380901 494.62836456 C-248.23555379 494.63708521 -248.23555379 494.63708521 -246.98248532 494.64598203 C-244.2147306 494.66068108 -241.44784902 494.64665098 -238.68009949 494.63293457 C-236.68537846 494.6375396 -234.69066082 494.64388982 -232.69595033 494.65184355 C-227.1958588 494.66861515 -221.6960432 494.660255 -216.19595039 494.64789867 C-210.27147817 494.63888224 -204.34705481 494.65280104 -198.42259216 494.66381836 C-187.48036844 494.68061413 -176.53824 494.67910614 -165.59601116 494.66817249 C-155.48663399 494.65812038 -145.37728924 494.6554787 -135.2679081 494.66026306 C-134.59799322 494.6605686 -133.92807835 494.66087414 -133.23786302 494.66118894 C-130.51860189 494.66243425 -127.79934077 494.66370785 -125.08007967 494.665028 C-99.55458987 494.67727254 -74.0291564 494.6661574 -48.50367529 494.64464041 C-25.81907038 494.62566355 -3.13455529 494.62735004 19.55004883 494.64648438 C45.02355649 494.6678992 70.49701432 494.67639773 95.97052974 494.66403532 C98.68584008 494.66275242 101.40115044 494.66150106 104.1164608 494.66026306 C105.11936199 494.6597886 105.11936199 494.6597886 106.14252381 494.65930455 C116.24419246 494.65475247 126.34582512 494.66007996 136.44748878 494.67018127 C147.93460326 494.68138754 159.42160837 494.67839032 170.90871028 494.6570583 C176.77268227 494.64652853 182.63647177 494.64245887 188.5004425 494.65565491 C193.86514086 494.66754496 199.229487 494.66107205 204.59415325 494.6397447 C206.53829927 494.63526419 208.48247485 494.6375772 210.42660198 494.64724785 C213.06358987 494.65936207 215.6993618 494.64698762 218.33628559 494.62836456 C219.47611094 494.64241156 219.47611094 494.64241156 220.63896307 494.65674233 C226.6766819 494.57116116 230.11025225 492.46631687 234.4375 488.4375 C237.97097574 481.55652092 236.39269983 474.33864196 234.375 467.25 C233.97172485 465.77793091 233.97172485 465.77793091 233.56030273 464.27612305 C221.41753819 420.81133823 206.36047332 378.01546459 189.625 336.125 C189.35471985 335.44842346 189.0844397 334.77184692 188.80596924 334.07476807 C175.86923402 301.76426466 162.45503106 268.73499743 143.71972656 239.31103516 C136.08544076 227.26039048 129.33447153 214.70642493 122.625 202.125 C122.13950684 201.22507324 121.65401367 200.32514648 121.15380859 199.39794922 C111.89498682 182.04679882 103.44664038 160.53799827 107.80859375 140.7109375 C109.35393163 135.81613521 112.06850463 131.54925454 114.625 127.125 C122.81144073 112.30285402 127.77428537 97.22086167 127.875 80.1875 C127.895625 79.31931641 127.91625 78.45113281 127.9375 77.55664062 C127.97513412 71.33289821 127.33613675 66.36206766 123.1953125 61.41796875 C116.25534132 56.10982863 110.67242422 55.70807107 102.1875 55.6875 C100.54503296 55.68169922 100.54503296 55.68169922 98.86938477 55.67578125 C87.72137872 55.82980134 77.31337974 58.10195894 66.625 61.125 C66.1926001 60.21258545 66.1926001 60.21258545 65.75146484 59.28173828 C64.28225452 56.46877685 62.36904922 54.35841026 60.25 52 C59.09371094 50.69675781 59.09371094 50.69675781 57.9140625 49.3671875 C55.84616203 47.34163312 54.27778801 46.20307367 51.625 45.125 C52.2025 44.21878906 52.78 43.31257813 53.375 42.37890625 C59.37744187 32.97087124 59.37744187 32.97087124 59.625 22.125 C57.24051718 18.68074704 54.58738403 17.32293005 50.625 16.125 C38.54488918 14.10673758 27.22006692 14.8314268 15.34375 17.37109375 C7.0064325 19.06132723 1.00192674 18.96176312 -7.3125 17.3125 C-9.3665673 16.93153657 -11.42126428 16.55395327 -13.4765625 16.1796875 C-14.98331543 15.90463379 -14.98331543 15.90463379 -16.52050781 15.62402344 C-34.49639436 12.48147194 -52.84964233 11.9125564 -71.0625 11.9375 C-71.82947205 11.93777191 -72.59644409 11.93804382 -73.38665771 11.93832397 C-181.29106751 8.94140653 -181.29106751 8.94140653 -277.28515625 47.9453125 Z " fill="#FCFCFC" transform="translate(793.375,302.875)"/>
<path d="M0 0 C10.86192813 2.10100804 10.86192813 2.10100804 21.4609375 -0.09765625 C34.12433057 -2.89257407 50.47773211 -4.68482496 62.3984375 1.40234375 C66.33264581 4.26358615 66.33264581 4.26358615 66.83203125 6.75 C67.03011773 13.35676679 65.01189136 17.43852487 61.4609375 22.90234375 C60.8628125 23.91296875 60.2646875 24.92359375 59.6484375 25.96484375 C59.2565625 26.60421875 58.8646875 27.24359375 58.4609375 27.90234375 C59.04875 28.16402344 59.6365625 28.42570312 60.2421875 28.6953125 C65.55887109 31.58766325 69.98515935 37.03625434 73.4609375 41.90234375 C73.4609375 42.56234375 73.4609375 43.22234375 73.4609375 43.90234375 C74.26422485 43.67514648 74.26422485 43.67514648 75.08374023 43.44335938 C86.33112549 40.35374483 97.14232245 38.39559815 108.8359375 38.33984375 C110.39332642 38.31857422 110.39332642 38.31857422 111.98217773 38.296875 C119.59306874 38.39590261 124.86475956 40.0632559 130.8359375 44.77734375 C136.89117869 52.69573608 135.33952932 65.85279655 134.17236328 75.21777344 C131.788195 89.48438041 126.28215007 103.69334928 117.94140625 115.5078125 C112.46483388 124.36569868 112.38847983 135.7692884 114.60546875 145.66015625 C118.49475374 161.08999729 123.95947429 174.89644725 131.4609375 188.90234375 C132.0394043 189.98692871 132.61787109 191.07151367 133.21386719 192.18896484 C139.43232203 203.7661574 145.8944441 215.13480888 152.9609375 226.21484375 C176.04044749 262.7470784 191.27104896 304.65527511 206.4609375 344.90234375 C206.74712952 345.66037292 207.03332153 346.4184021 207.32818604 347.19940186 C219.39915179 379.25007897 230.49551351 411.84120642 239.8984375 444.77734375 C240.16253418 445.68895264 240.42663086 446.60056152 240.69873047 447.53979492 C242.61086014 454.52611291 244.63442143 462.31669839 242.3359375 469.33984375 C239.86832215 472.71225139 237.19932145 475.03315178 233.4609375 476.90234375 C230.85337477 477.0026485 228.27236768 477.04158724 225.66441441 477.03656483 C224.84583264 477.03891706 224.02725088 477.04126929 223.18386361 477.0436928 C220.41126407 477.05040692 217.63871113 477.04992385 214.86610413 477.04951477 C212.87011199 477.05281188 210.87412051 477.05653712 208.8781299 477.06065625 C203.37007771 477.07070148 197.86203642 477.07439708 192.35397637 477.07704556 C186.422742 477.08094106 180.49151632 477.09051978 174.56028748 477.09925842 C160.9041638 477.11810712 147.24803857 477.12828115 133.59190546 477.1367191 C126.84753227 477.14092294 120.10315997 477.14614522 113.35878753 477.15140363 C90.28413373 477.16929352 67.20947968 477.18429146 44.13481998 477.19172382 C42.68583118 477.19219858 41.23684237 477.19267447 39.78785357 477.19315149 C38.70997607 477.19350605 38.70997607 477.19350605 37.61032328 477.19386778 C33.96946356 477.19506901 30.32860385 477.19628445 26.68774414 477.19750977 C25.96519833 477.19774992 25.24265251 477.19799007 24.49821137 477.19823749 C1.05764684 477.20613506 -22.38286716 477.22957646 -45.82340962 477.26206571 C-70.59100403 477.2963318 -95.35856887 477.31607189 -120.12618738 477.31936806 C-122.84286377 477.31978562 -125.55954014 477.32026519 -128.27621651 477.32079124 C-129.27964085 477.32097603 -129.27964085 477.32097603 -130.30333639 477.32116455 C-141.08686512 477.32350041 -151.87033532 477.33918161 -162.65384316 477.35963309 C-173.48383628 477.3798476 -184.31375544 477.38505464 -195.14376371 477.37586246 C-201.01546904 477.37129711 -206.88698363 477.373333 -212.75866318 477.3926239 C-218.12692689 477.41010941 -223.49485864 477.40937795 -228.86312515 477.39372661 C-230.81196583 477.39132815 -232.76082862 477.39578832 -234.70963525 477.40755526 C-237.34573495 477.42249449 -239.98063072 477.41312795 -242.61669827 477.39732838 C-243.38474872 477.40755058 -244.15279918 477.41777279 -244.94412389 477.42830476 C-248.26740742 477.384412 -250.0557157 477.35933806 -252.52517706 475.0245139 C-253.8123216 472.33038337 -253.71698952 470.72250398 -253.3515625 467.76953125 C-253.23167969 466.7959668 -253.11179687 465.82240234 -252.98828125 464.81933594 C-250.14844661 446.37893141 -244.35410805 428.57967587 -238.5390625 410.90234375 C-238.28276062 410.12248108 -238.02645874 409.34261841 -237.76239014 408.53912354 C-229.64785202 383.90192523 -220.95135837 359.51958271 -211.61743164 335.31713867 C-199.78732433 306.58414502 -199.78732433 306.58414502 -200.6328125 276.50390625 C-207.42224119 262.16665523 -220.33535944 255.3241917 -233.359375 247.3125 C-271.17974566 224.03039673 -271.17974566 224.03039673 -275.11328125 210.08203125 C-275.86965722 206.20994144 -276.33525612 202.49473099 -274.5390625 198.90234375 C-275.26351562 198.64710938 -275.98796875 198.391875 -276.734375 198.12890625 C-287.06245745 193.61216824 -295.56882851 183.84281172 -300.5390625 173.90234375 C-300.5390625 173.24234375 -300.5390625 172.58234375 -300.5390625 171.90234375 C-301.26996094 171.65742188 -302.00085938 171.4125 -302.75390625 171.16015625 C-309.54132329 168.09487114 -314.76216621 161.62502683 -317.78515625 154.921875 C-318.03394531 154.25542969 -318.28273438 153.58898437 -318.5390625 152.90234375 C-319.07080078 151.60490234 -319.07080078 151.60490234 -319.61328125 150.28125 C-327.02474577 123.23096812 -311.40478727 96.4860907 -298.68725586 73.87524414 C-297.76402349 72.28888634 -296.76441275 70.74710521 -295.7421875 69.22265625 C-294.20023028 66.24888161 -294.16945219 63.92442576 -294.1015625 60.58984375 C-293.60846436 52.49025029 -291.78856614 47.71929993 -285.7890625 42.21484375 C-282.55373503 39.55960272 -279.17461036 37.39409596 -275.578125 35.26953125 C-273.29555961 33.73907553 -271.4557626 31.9949165 -269.4765625 30.08984375 C-253.1381485 15.33256659 -229.28312271 10.54909114 -208.33300781 6.45214844 C-205.72725025 5.93937615 -203.12958426 5.3965711 -200.53125 4.84765625 C-172.30452464 -0.90744104 -143.15491108 -2.60071912 -114.43066406 -3.91845703 C-110.91145002 -4.08050867 -107.39333386 -4.25757913 -103.875 -4.4375 C-69.1358205 -6.104894 -34.33329344 -6.04238023 0 0 Z M-268.07568359 38.22753906 C-276.82537881 48.2413711 -284.08695632 59.30660048 -290.5390625 70.90234375 C-291.08385254 71.88122559 -291.62864258 72.86010742 -292.18994141 73.86865234 C-302.25254096 91.96054563 -302.25254096 91.96054563 -310.5390625 110.90234375 C-310.94640625 111.8253125 -311.35375 112.74828125 -311.7734375 113.69921875 C-316.68899177 125.88709988 -316.55571742 142.73231051 -311.5390625 154.90234375 C-309.09178434 159.44251279 -306.86113316 163.02096331 -302.5390625 165.90234375 C-302.7040625 164.68546875 -302.8690625 163.46859375 -303.0390625 162.21484375 C-304.22443789 151.22005748 -303.35743922 140.7757451 -301.5390625 129.90234375 C-301.34828125 128.73058594 -301.1575 127.55882812 -300.9609375 126.3515625 C-300.49729257 123.53326367 -300.02365484 120.71710352 -299.5390625 117.90234375 C-298.5390625 118.90234375 -298.5390625 118.90234375 -298.47314453 122.19018555 C-298.49377735 123.66070516 -298.51869052 125.13116824 -298.546875 126.6015625 C-298.56443226 128.22069641 -298.58133644 129.83983752 -298.59765625 131.45898438 C-298.62826189 134.00386777 -298.66329421 136.54838435 -298.71044922 139.09301758 C-298.98652418 154.81843371 -298.53400993 171.50216988 -287.5390625 183.90234375 C-285.48003321 185.58295685 -283.46012747 187.13540911 -281.2890625 188.65234375 C-280.6791748 189.08135986 -280.06928711 189.51037598 -279.44091797 189.95239258 C-255.75127094 206.30323569 -227.91156655 217.84439696 -198.8671875 218.140625 C-198.07019943 218.15014694 -197.27321136 218.15966888 -196.45207214 218.16947937 C-193.89769865 218.19379165 -191.34353582 218.20644551 -188.7890625 218.21484375 C-187.48547287 218.22076538 -187.48547287 218.22076538 -186.1555481 218.22680664 C-174.23799401 218.25212069 -162.96846054 217.66454004 -151.34765625 214.77734375 C-147.90904251 213.98734428 -145.0453898 213.72508866 -141.5390625 213.90234375 C-141.5390625 214.56234375 -141.5390625 215.22234375 -141.5390625 215.90234375 C-183.18046793 227.44760555 -225.6992459 223.40052154 -264.5390625 204.90234375 C-263.96378931 208.39070244 -263.1059237 211.17373082 -261.4140625 214.27734375 C-261.04023437 214.98632812 -260.66640625 215.6953125 -260.28125 216.42578125 C-254.92378324 224.04155238 -247.65127141 228.73903048 -239.9140625 233.71484375 C-199.86999228 259.99715406 -199.86999228 259.99715406 -195.9140625 278.88671875 C-194.6735954 288.86214164 -195.70074705 298.28647578 -197.2890625 308.15234375 C-197.52435669 309.66030518 -197.52435669 309.66030518 -197.7644043 311.19873047 C-198.90763503 317.86730228 -200.80092052 323.72879157 -203.5390625 329.90234375 C-233.58667512 394.15561231 -233.58667512 394.15561231 -243.5390625 461.90234375 C-241.39996477 465.49297208 -239.41369222 467.42381425 -235.5390625 468.90234375 C-233.00106411 469.09877904 -230.5723666 469.18774949 -228.034729 469.18081665 C-227.27585412 469.18660905 -226.51697923 469.19240145 -225.73510814 469.19836938 C-223.19087546 469.21538203 -220.64682404 469.21824696 -218.10253906 469.22119141 C-216.2793076 469.23048871 -214.45608041 469.24065709 -212.63285828 469.25163269 C-207.68078279 469.27896902 -202.72873581 469.29409288 -197.77660465 469.30706072 C-192.60223681 469.32267535 -187.42792731 469.34947088 -182.25360107 469.37509155 C-172.45415805 469.42190889 -162.65470408 469.4586387 -152.85520625 469.49176443 C-141.69930422 469.52996493 -130.54346075 469.57938052 -119.38760805 469.62974858 C-96.43813625 469.73311239 -73.48862684 469.82235833 -50.5390625 469.90234375 C-50.31864792 469.17658646 -50.09823334 468.45082916 -49.87113953 467.70307922 C-48.85047232 464.34807328 -47.82564769 460.99435046 -46.80078125 457.640625 C-46.2810675 455.92897156 -46.2810675 455.92897156 -45.75085449 454.18273926 C-31.73966027 408.41283814 -9.13121805 349.06444235 35.0703125 324.44921875 C36.84531176 323.55542479 38.64931161 322.7193515 40.4609375 321.90234375 C40.7909375 322.23234375 41.1209375 322.56234375 41.4609375 322.90234375 C40.90148437 323.40378906 40.34203125 323.90523437 39.765625 324.421875 C3.16013906 358.96756672 -18.92372768 417.64076942 -29.5390625 465.90234375 C-29.5390625 467.22234375 -29.5390625 468.54234375 -29.5390625 469.90234375 C43.7209375 469.90234375 116.9809375 469.90234375 192.4609375 469.90234375 C206.31437674 414.48858681 141.53186418 241.71675704 113.4609375 166.90234375 C113.19889526 166.24289764 112.93685303 165.58345154 112.66687012 164.90402222 C107.20801303 150.40482417 107.20801303 150.40482417 96.4609375 139.90234375 C93.43546692 139.52860044 90.49830636 139.65986978 87.4609375 139.83984375 C77.71819964 140.3696842 77.71819964 140.3696842 73.4609375 136.90234375 C73.1309375 136.24234375 72.8009375 135.58234375 72.4609375 134.90234375 C73.37875 134.93714844 74.2965625 134.97195313 75.2421875 135.0078125 C86.53431221 135.25690349 92.82868212 134.2043033 101.109375 126.37890625 C116.66123264 110.00037179 128.48639184 88.95272397 128.7734375 66.02734375 C128.80244141 65.26292969 128.83144531 64.49851562 128.86132812 63.7109375 C128.92464201 57.97372507 127.66330019 53.69395962 124.4609375 48.90234375 C118.1484851 42.89781586 111.17573108 43.42941753 102.953125 43.5390625 C94.61790913 43.89174088 86.71381354 46.18607562 78.70117188 48.35107422 C75.63393554 49.10584968 72.59633265 49.53372297 69.4609375 49.90234375 C69.16960937 49.40605469 68.87828125 48.90976562 68.578125 48.3984375 C55.52165918 26.76083533 31.33013057 14.54510629 7.51416016 8.22143555 C-15.61114557 2.51572694 -39.8320867 1.74298299 -63.5390625 0.90234375 C-64.32589417 0.87251404 -65.11272583 0.84268433 -65.92340088 0.81195068 C-120.45737498 -1.20730642 -228.81556805 -4.76972156 -268.07568359 38.22753906 Z " fill="#1B1E3A" transform="translate(786.5390625,320.09765625)"/>
<path d="M0 0 C22.11 0 44.22 0 67 0 C78.68774052 22.20670698 78.68774052 22.20670698 83.9375 32.75 C84.22959351 33.33507324 84.52168701 33.92014648 84.82263184 34.52294922 C89.28581484 43.46493546 93.66279598 52.44604405 97.92163086 61.48730469 C102.45518498 71.07812463 107.25038234 80.50076469 112 90 C112.33 60.3 112.66 30.6 113 0 C130.82 0 148.64 0 167 0 C167 53.46 167 106.92 167 162 C144.56 162 122.12 162 99 162 C96.195 156.225 93.39 150.45 90.5 144.5 C78.85202623 120.57307118 66.9288348 96.7883159 55 73 C54.67 102.37 54.34 131.74 54 162 C36.18 162 18.36 162 0 162 C0 108.54 0 55.08 0 0 Z " fill="#171B39" transform="translate(430,840)"/>
<path d="M0 0 C1.5153659 -0.00322425 3.03073151 -0.00658914 4.5460968 -0.01008606 C7.70871704 -0.0160374 10.87131012 -0.01793015 14.03393555 -0.01733398 C18.03970159 -0.0172327 22.04528908 -0.03086838 26.05101299 -0.04810619 C29.17845929 -0.05935485 32.3058642 -0.06124928 35.43332863 -0.06072426 C36.90775987 -0.06188575 38.38219285 -0.06620121 39.85660362 -0.07405663 C50.1299139 -0.12366458 60.00473839 0.6752372 70.17578125 2.16796875 C71.72752045 2.39113266 71.72752045 2.39113266 73.31060791 2.61880493 C90.00129134 5.07520679 114.64845999 8.93783239 126.30078125 22.41796875 C129.16690972 26.62162383 129.53263935 28.75441 128.83203125 33.73828125 C127.16225423 39.92043189 122.79314157 43.29832977 117.45703125 46.45703125 C100.6175851 55.88097761 82.80472903 61.47157143 64.17578125 66.16796875 C63.24169434 66.40402832 62.30760742 66.64008789 61.34521484 66.88330078 C28.79887991 74.82271367 -5.0210081 76.63992472 -38.38671875 76.66796875 C-39.64262817 76.67236969 -40.8985376 76.67677063 -42.19250488 76.68130493 C-122.265416 76.79868505 -122.265416 76.79868505 -145.69921875 56.16796875 C-146.25351562 55.69359375 -146.8078125 55.21921875 -147.37890625 54.73046875 C-149.99554983 51.90166488 -150.77448859 49.61554017 -151.19921875 45.79296875 C-150.57651741 39.77352244 -147.54925064 36.57492687 -143.07421875 32.79296875 C-138.96265683 29.73634706 -134.63468736 27.34505484 -130.07421875 25.04296875 C-129.45579102 24.73053223 -128.83736328 24.4180957 -128.20019531 24.09619141 C-117.55164478 18.91252676 -106.53230499 15.31963896 -95.05053711 12.53759766 C-93.02136021 12.04530782 -90.99597394 11.53934383 -88.97070312 11.03125 C-75.77846751 7.75758797 -62.49250609 5.15709776 -48.9765625 3.63671875 C-48.3047998 3.56066406 -47.63303711 3.48460937 -46.94091797 3.40625 C-46.24240723 3.32761719 -45.54389648 3.24898437 -44.82421875 3.16796875 C-43.28385163 2.99090746 -41.74348712 2.8138235 -40.203125 2.63671875 C-32.43740365 1.75421405 -32.43740365 1.75421405 -29.21664429 1.41828918 C-27.65701857 1.25510493 -26.09800991 1.08587541 -24.53979492 0.909729 C-16.36335458 0.05992595 -8.21053271 0.00416126 0 0 Z " fill="#EA731B" transform="translate(1086.82421875,974.83203125)"/>
<path d="M0 0 C35.97 0 71.94 0 109 0 C109 15.18 109 30.36 109 46 C91.84 46 74.68 46 57 46 C57 50.95 57 55.9 57 61 C71.19 61 85.38 61 100 61 C100 73.87 100 86.74 100 100 C85.81 100 71.62 100 57 100 C57 105.61 57 111.22 57 117 C74.82 117 92.64 117 111 117 C111 131.85 111 146.7 111 162 C74.37 162 37.74 162 0 162 C0 108.54 0 55.08 0 0 Z " fill="#171B39" transform="translate(307,840)"/>
<path d="M0 0 C44.88 0 89.76 0 136 0 C136 16.5 136 33 136 50 C135.67 50.33 135.34 50.66 135 51 C122.79 51 110.58 51 98 51 C98 87.63 98 124.26 98 162 C78.2 162 58.4 162 38 162 C38 125.37 38 88.74 38 51 C25.46 51 12.92 51 0 51 C0 34.17 0 17.34 0 0 Z " fill="#171B39" transform="translate(609,840)"/>
<path d="M0 0 C7.76957511 1.59506583 14.06587168 0.15144961 21.625 -1.875 C24.95642701 -2.42364747 28.25448326 -2.70361779 31.625 -2.875 C32.59566406 -2.92785156 33.56632812 -2.98070312 34.56640625 -3.03515625 C47.41173945 -3.39766259 61.88039743 -2.11126958 71.6484375 7.015625 C78.18391717 14.00458693 79.00403876 20.28976449 78.89453125 29.6875 C78.55189534 34.05734929 77.51176328 37.19424318 75.625 41.125 C76.32238281 40.9084375 77.01976562 40.691875 77.73828125 40.46875 C86.26152573 38.22086135 94.46328151 37.7644236 103.25 37.6875 C104.38091064 37.66558594 105.51182129 37.64367187 106.67700195 37.62109375 C120.36770496 37.65290716 130.31044514 41.81044514 139.9375 51.4375 C149.34708833 66.42314068 148.05874803 85.07025969 144.53588867 101.7421875 C141.26962536 115.73849086 135.44072275 128.55764795 127.99609375 140.8046875 C124.36059754 146.9570657 125.19346833 153.84017082 126.734375 160.56640625 C130.7202149 176.03592475 136.74320484 189.29236697 144.625 203.125 C145.71965841 205.09643047 146.81209224 207.06909774 147.90234375 209.04296875 C152.8018705 217.86313657 157.85005332 226.56308716 163.1875 235.125 C187.83882146 274.95390658 204.54175929 320.30680397 220.625 364.125 C220.90365906 364.88321045 221.18231812 365.6414209 221.46942139 366.42260742 C261.44582981 475.32697949 261.44582981 475.32697949 252.23828125 495.32421875 C247.81261031 503.00752642 241.36427478 507.88686431 233.01511109 510.65964949 C229.52855675 511.33847561 226.06170783 511.26750945 222.52384758 511.26201439 C221.69661344 511.26466622 220.86937929 511.26731804 220.01707745 511.27005023 C217.227021 511.27774949 214.43700851 511.27830264 211.64694214 511.27890015 C209.6335886 511.28291435 207.62023587 511.2873525 205.60688412 511.2921797 C200.05985865 511.30415563 194.51284188 511.30979601 188.96580601 511.31436086 C182.98879995 511.32031302 177.01180433 511.33192377 171.0348053 511.34265137 C157.27625196 511.36602355 143.51769544 511.38058308 129.75912886 511.39288078 C124.99885502 511.39713588 120.23858156 511.40170161 115.4783082 511.4064641 C90.16605822 511.43172396 64.85380759 511.45377143 39.54154778 511.46619225 C33.67743808 511.46911356 27.8133284 511.47208108 21.94921875 511.47509766 C20.85641034 511.47565402 20.85641034 511.47565402 19.74152499 511.47622162 C-3.87926633 511.48837705 -27.49998314 511.51932147 -51.12073947 511.56101918 C-75.40521693 511.60381036 -99.68965504 511.63043366 -123.97417123 511.63566696 C-127.40444097 511.6364074 -130.83471064 511.63731808 -134.26498032 511.63832474 C-134.94008067 511.63851535 -135.61518102 511.63870597 -136.31073896 511.63890236 C-147.17275705 511.64241512 -158.03468175 511.66270911 -168.89666555 511.68912137 C-179.81616151 511.71527298 -190.7355445 511.72257626 -201.65506692 511.71202008 C-207.57022513 511.70682716 -213.48508654 511.70976194 -219.4002018 511.73448563 C-224.81630387 511.75693478 -230.23189518 511.75627155 -235.64800595 511.73728175 C-237.60633559 511.73447571 -239.56469956 511.7401137 -241.52297391 511.75509469 C-261.04449706 511.89529343 -261.04449706 511.89529343 -268.375 506.125 C-273.69859327 500.7157205 -276.17812597 495.19647502 -276.47265625 487.609375 C-274.92174497 441.20610946 -249.98862956 389.8859897 -233.52755737 347.27627563 C-227.54330067 331.77201601 -227.54330067 331.77201601 -222.9375 315.8125 C-222.74381836 315.01884033 -222.55013672 314.22518066 -222.35058594 313.4074707 C-221.14875741 307.78089769 -220.8406735 302.31570169 -223.40625 296.98046875 C-229.20588201 290.39418453 -236.68231732 286.12697998 -244.07568359 281.55273438 C-292.33816502 251.58469537 -292.33816502 251.58469537 -298.375 226.125 C-298.375 225.465 -298.375 224.805 -298.375 224.125 C-299.25478516 223.71314453 -299.25478516 223.71314453 -300.15234375 223.29296875 C-307.81795572 219.26481764 -312.43196947 212.50292147 -317.30029297 205.60571289 C-320.32483357 201.38069947 -323.42146767 198.10800772 -327.46875 194.83203125 C-337.13487896 186.176092 -342.71176635 172.9727599 -343.49780273 160.11645508 C-344.49379504 132.75845368 -335.14503511 105.2329904 -319.09765625 82.96484375 C-316.94176461 79.41080016 -316.49260609 76.04311354 -316 72 C-313.99492466 58.93530671 -309.06600231 50.14742139 -298.375 42.125 C-296.43812938 40.84242733 -294.47850465 39.64875666 -292.46875 38.484375 C-289.91307181 36.8250914 -287.73219179 34.87939945 -285.4375 32.875 C-241.52809459 -3.29627249 -164.75634189 -2.52568911 -110.68878174 -4.77606201 C-108.53031053 -4.86835888 -106.37233227 -4.96765621 -104.21435547 -5.07080078 C-69.70213473 -6.7018131 -33.96537974 -7.03836411 0 0 Z M-154.75 4 C-156.46624529 4.18313004 -158.1825554 4.36565356 -159.89892578 4.54760742 C-163.23810784 4.90382551 -166.57636451 5.26735401 -169.9140625 5.63720703 C-173.70059963 6.0553172 -177.48973564 6.43800748 -181.28125 6.80859375 C-215.7711026 10.32819163 -260.85295144 16.54989105 -286.375 42.125 C-286.375 42.785 -286.375 43.445 -286.375 44.125 C-287.179375 44.310625 -287.98375 44.49625 -288.8125 44.6875 C-298.22225752 48.4844197 -304.19268583 55.49791275 -308.51171875 64.4921875 C-309.5322806 67.60467025 -309.59530188 70.35423981 -309.75 73.625 C-310.52790299 81.88361592 -314.34075209 88.00858007 -318.55810547 94.99853516 C-331.50672601 116.47118034 -342.17899452 142.30224007 -336.05859375 167.796875 C-332.98054164 178.27984104 -328.29734642 185.94072498 -319.875 193 C-315.61049759 196.62446748 -313.11142788 200.5306537 -310.265625 205.3046875 C-306.17845614 211.40166254 -300.49619553 217.03546465 -294.375 221.125 C-293.715 221.125 -293.055 221.125 -292.375 221.125 C-292.28863281 221.80304688 -292.20226562 222.48109375 -292.11328125 223.1796875 C-289.74124402 238.89171392 -281.58297665 248.27040085 -269.078125 257.49609375 C-260.77605264 263.46850295 -252.05523769 268.83072837 -243.3828125 274.2421875 C-218.43773916 289.81954849 -218.43773916 289.81954849 -215.375 299.125 C-211.84315545 318.36041782 -224.03314535 340.6103469 -230.65435791 358.20703125 C-242.06132255 388.56634834 -253.16398314 419.11167325 -262.0625 450.3125 C-262.26505402 451.01990326 -262.46760803 451.72730652 -262.67630005 452.45614624 C-269.6094605 473.79065087 -269.6094605 473.79065087 -268.25 495.5625 C-264.48086049 500.71365732 -260.50237473 503.50811601 -254.375 505.125 C-251.58688146 505.30819479 -248.90156309 505.39565748 -246.11586952 505.37947559 C-245.29585874 505.38268207 -244.47584795 505.38588855 -243.63098836 505.38919219 C-240.87750725 505.39750733 -238.12424281 505.39156259 -235.37075806 505.38569641 C-233.37900123 505.3887164 -231.38724557 505.39260511 -229.39549196 505.39728898 C-223.9175129 505.40759736 -218.43959909 505.40537993 -212.96161461 505.40110838 C-207.05557417 505.39864631 -201.14954966 505.40764886 -195.24351501 505.41514587 C-183.67112999 505.42790935 -172.09876673 505.42969035 -160.52637602 505.42734561 C-151.1220266 505.4255133 -141.71768399 505.42727126 -132.31333542 505.43157005 C-130.96244981 505.43217245 -129.61156419 505.43277365 -128.26067858 505.43337366 C-126.22504659 505.4342809 -124.18941461 505.43518957 -122.15378262 505.43610601 C-103.22604451 505.44453631 -84.29830896 505.4488707 -65.37056923 505.44469929 C-64.65694557 505.44454291 -63.94332191 505.44438654 -63.20807328 505.44422542 C-59.59110863 505.44341963 -55.97414399 505.44257386 -52.35717936 505.44171212 C-51.63883312 505.44154103 -50.92048688 505.44136994 -50.18037257 505.44119367 C-48.72770181 505.44084702 -47.27503106 505.44049849 -45.82236031 505.44014808 C-23.21782113 505.43479065 -0.61332096 505.44272162 21.99121094 505.46118164 C47.38527794 505.48189543 72.77932078 505.49262554 98.17339671 505.48860615 C100.88083243 505.48821081 103.58826816 505.48784926 106.29570389 505.48750877 C107.29566883 505.48737268 107.29566883 505.48737268 108.31583509 505.48723383 C118.38154035 505.48606763 128.44722121 505.49271789 138.51292038 505.50332069 C149.95999158 505.51521565 161.40700536 505.51666057 172.85407732 505.50453053 C178.69601613 505.49862861 184.53784982 505.49757868 190.37978172 505.50953293 C195.72651707 505.52034685 201.07305897 505.51734197 206.4197851 505.50327124 C208.35513222 505.50061191 210.29049428 505.50302942 212.22582678 505.51100711 C214.85551421 505.52109551 217.48452691 505.51270629 220.11418724 505.49973011 C220.86635489 505.50703946 221.61852255 505.5143488 222.39348316 505.52187964 C230.2755191 505.44120754 237.94519495 502.74952714 243.625 497.125 C249.0401888 489.30306063 250.82422866 481.87508361 249.14501953 472.42333984 C248.39978489 469.19615453 247.5623884 466.00705687 246.6875 462.8125 C246.17328491 460.91624878 246.17328491 460.91624878 245.64868164 458.98168945 C228.80147381 398.07025587 206.28667561 337.42494522 179.625 280.125 C179.13338379 279.05958984 178.64176758 277.99417969 178.13525391 276.89648438 C171.03019725 261.5512032 163.19501765 246.89543047 154.39453125 232.46484375 C148.49135877 222.76734888 143.04836475 212.85408347 137.70703125 202.8359375 C135.95982278 199.56504403 134.18552954 196.3341791 132.26171875 193.1640625 C127.64793883 185.33407482 125.02961787 177.55623226 122.625 168.8125 C122.32158691 167.71437988 122.01817383 166.61625977 121.70556641 165.48486328 C118.91097657 154.64001467 118.13189487 144.87220248 123.9140625 134.90234375 C124.39617187 134.13019531 124.87828125 133.35804688 125.375 132.5625 C137.26981169 113.41836278 143.7659083 89.36306331 140.09375 66.87109375 C137.66993665 58.24284514 133.11227673 52.87302915 125.625 48.125 C110.32958617 39.85200887 88.69057518 44.01215954 72.625 48.125 C71.20933408 45.48242363 70.11661157 43.09142893 69.625 40.125 C70.3365625 38.4234375 70.3365625 38.4234375 71.0625 36.6875 C73.37154997 30.98970541 73.32754477 25.17162126 72.625 19.125 C69.86550896 13.18148084 65.05221301 8.88361496 58.90625 6.5625 C45.01415763 1.5776717 27.73832156 2.07707995 13.66015625 6.265625 C8.86882742 7.53498964 4.46710512 6.85777316 -0.375 6.125 C-1.53660645 5.95701904 -1.53660645 5.95701904 -2.72167969 5.78564453 C-5.81749989 5.32265063 -8.90730422 4.82599522 -11.99609375 4.31835938 C-14.7847991 3.88078203 -17.57652032 3.49547684 -20.375 3.125 C-21.01138397 3.03888458 -21.64776794 2.95276917 -22.30343628 2.86404419 C-37.88892094 0.82641217 -53.45502137 0.85130271 -69.14575195 0.92938232 C-71.83925741 0.94009129 -74.53271142 0.93980151 -77.22623444 0.93939209 C-103.10056502 0.94017928 -129.00961325 1.14963002 -154.75 4 Z " fill="#1A1E3B" transform="translate(793.375,302.875)"/>
<path d="M0 0 C19.47 0 38.94 0 59 0 C59 53.46 59 106.92 59 162 C39.53 162 20.06 162 0 162 C0 108.54 0 55.08 0 0 Z " fill="#171B39" transform="translate(757,840)"/>
<path d="M0 0 C1.60417412 1.7555113 2.94798885 3.58277914 4.32421875 5.5234375 C5.09121094 6.51988281 5.85820313 7.51632812 6.6484375 8.54296875 C14.62140347 19.13189316 14.62140347 19.13189316 14.64453125 25.48046875 C13.48397698 32.88254049 8.97570053 37.54801766 3.4140625 42.29296875 C-2.51242669 46.57112972 -9.01244842 49.57212029 -15.67578125 52.5234375 C-16.87203125 53.05839844 -18.06828125 53.59335938 -19.30078125 54.14453125 C-86.33559459 82.4432189 -195.05394293 90.66001611 -263.67578125 64.5234375 C-273.54077583 60.40699499 -283.23159882 55.80956942 -287.67578125 45.5234375 C-289.50698517 38.80099154 -287.02295209 33.31635393 -284.11328125 27.3359375 C-283.79141846 26.67078125 -283.46955566 26.005625 -283.13793945 25.3203125 C-278.42592621 16.31905863 -271.67248312 11.44559491 -262.73828125 6.9609375 C-261.80588623 6.48624023 -260.87349121 6.01154297 -259.9128418 5.52246094 C-252.01930488 1.57129176 -244.11186607 -1.86219043 -235.67578125 -4.4765625 C-234.77891602 -4.7545166 -233.88205078 -5.0324707 -232.95800781 -5.31884766 C-215.13927212 -10.70911801 -197.10362987 -14.03509027 -178.67578125 -16.4765625 C-177.94723938 -16.57473267 -177.21869751 -16.67290283 -176.46807861 -16.77404785 C-130.13675076 -22.97838417 -38.41106692 -33.8447163 0 0 Z M-174.2578125 -12.91268921 C-177.46715928 -12.3338224 -180.67757382 -12.06451621 -183.92578125 -11.7890625 C-212.15783333 -8.84704505 -255.52833079 -1.56700796 -274.90625 21.13671875 C-277.8584378 25.11858795 -278.09128373 27.53740777 -277.67578125 32.5234375 C-272.99783078 42.07425305 -263.73368502 45.79801787 -254.19921875 49.078125 C-230.73722718 56.74819402 -206.29271869 59.56087977 -181.6796875 59.796875 C-180.46826584 59.80935776 -179.25684418 59.82184052 -178.00871277 59.83470154 C-174.08523702 59.86721347 -170.1618633 59.88715994 -166.23828125 59.8984375 C-165.56753067 59.90059139 -164.89678009 59.90274529 -164.20570374 59.90496445 C-130.15629977 59.99288294 -95.81513092 57.87278741 -62.67578125 49.5234375 C-61.63244629 49.26304688 -60.58911133 49.00265625 -59.51416016 48.734375 C-46.14489953 45.33497292 -33.16656877 41.41768462 -20.67578125 35.5234375 C-19.65871094 35.04970703 -19.65871094 35.04970703 -18.62109375 34.56640625 C-6.91228206 29.11854817 -6.91228206 29.11854817 1.32421875 19.5234375 C2.9140454 14.78623828 2.90974425 11.71700871 0.69921875 7.2109375 C-3.55315414 2.39904187 -8.12133095 -0.4178689 -13.98828125 -2.9140625 C-15.04486938 -3.36519409 -15.04486938 -3.36519409 -16.12280273 -3.82543945 C-39.17705984 -13.46024584 -63.40262228 -16.63174826 -88.25390625 -16.64453125 C-89.75250274 -16.6477578 -91.25109894 -16.65112283 -92.74969482 -16.65461731 C-95.88294196 -16.6605725 -99.01616168 -16.66246128 -102.14941406 -16.66186523 C-105.31223329 -16.66178448 -108.47490613 -16.66865108 -111.63769531 -16.68237305 C-143.09540896 -16.83549897 -143.09540896 -16.83549897 -174.2578125 -12.91268921 Z " fill="#040202" transform="translate(1213.67578125,991.4765625)"/>
<path d="M0 0 C10.22097535 7.89054231 10.22097535 7.89054231 11.94921875 12.5703125 C12.05964384 17.85372857 7.42764101 21.44933581 4.05078125 25.1171875 C-5.98736202 34.95122804 -19.7908431 38.07719069 -33.515625 38.03125 C-49.15971119 37.67563042 -64.46408502 35.22552354 -76.16015625 23.91015625 C-82.9447968 16.42894069 -82.9447968 16.42894069 -83.0625 11.25 C-80.77585831 4.25556659 -74.82723599 -0.91148852 -68.66015625 -4.6796875 C-47.92035311 -14.97345176 -19.26093151 -12.34271937 0 0 Z " fill="#1A1D3A" transform="translate(785,396)"/>
<path d="M0 0 C0.66 0 1.32 0 2 0 C5.12062386 3.96079182 5.53142851 7.04000061 5 12 C-0.63339353 24.45276464 -15.7725706 31.45610922 -27.84277344 36.09179688 C-70.89212521 51.86622267 -117.47622844 57.18838596 -163.12646484 57.18530273 C-166.70032013 57.18746987 -170.27385608 57.20562341 -173.84765625 57.22460938 C-197.5359656 57.28342021 -220.77297506 55.80497313 -244 51 C-245.14033691 50.76410156 -245.14033691 50.76410156 -246.30371094 50.5234375 C-259.29204632 47.74820242 -272.91046732 44.02337073 -283 35 C-283.804375 34.401875 -284.60875 33.80375 -285.4375 33.1875 C-287.88923224 29.75507486 -288.09610489 26.15468838 -288 22 C-287.0625 18.9375 -287.0625 18.9375 -286 17 C-285.34 17 -284.68 17 -284 17 C-283.484375 17.845625 -282.96875 18.69125 -282.4375 19.5625 C-274.28017377 32.27833207 -256.87929499 36.80905435 -243 40 C-234.71943104 41.68675605 -226.37675471 42.90440624 -218 44 C-217.10651855 44.12004395 -216.21303711 44.24008789 -215.29248047 44.36376953 C-184.58367257 48.26708647 -151.70694344 47.53799457 -121 44 C-119.78538086 43.86577637 -118.57076172 43.73155273 -117.31933594 43.59326172 C-100.0185584 41.64773219 -82.94956869 39.03300709 -66 35 C-65.01 34.76522949 -64.02 34.53045898 -63 34.28857422 C-29.95055157 26.47176945 -29.95055157 26.47176945 -3 7 C-1.57450429 4.62417381 -0.79600315 2.67229628 0 0 Z " fill="#171B38" transform="translate(1218,1007)"/>
<path d="M0 0 C4.62 0 9.24 0 14 0 C14.75072286 3.75361432 15.24371221 7.16825873 15.53515625 10.95703125 C15.66567383 12.62475586 15.66567383 12.62475586 15.79882812 14.32617188 C15.9293457 16.0519043 15.9293457 16.0519043 16.0625 17.8125 C16.15337891 18.98232422 16.24425781 20.15214844 16.33789062 21.35742188 C16.56128894 24.23808437 16.78189606 27.11893262 17 30 C17.37809814 29.26885986 17.75619629 28.53771973 18.14575195 27.78442383 C19.86633387 24.45958326 21.58939085 21.13603147 23.3125 17.8125 C23.90740234 16.66201172 24.50230469 15.51152344 25.11523438 14.32617188 C25.69208984 13.21435547 26.26894531 12.10253906 26.86328125 10.95703125 C27.39219971 9.93585205 27.92111816 8.91467285 28.46606445 7.86254883 C28.97226318 6.91790771 29.47846191 5.9732666 30 5 C30.49048828 4.06220703 30.98097656 3.12441406 31.48632812 2.15820312 C31.98583984 1.44599609 32.48535156 0.73378906 33 0 C36.35546875 -0.48828125 36.35546875 -0.48828125 40.1875 -0.3125 C41.45980469 -0.26738281 42.73210938 -0.22226563 44.04296875 -0.17578125 C45.01878906 -0.11777344 45.99460937 -0.05976562 47 0 C47.14375393 16.36362077 46.7730971 32.65451837 46 49 C41.71 49 37.42 49 33 49 C33 40.09 33 31.18 33 22 C28.38 30.91 23.76 39.82 19 49 C15.04 49 11.08 49 7 49 C5.80490837 42.90503266 5.64426036 36.82445104 5.39453125 30.63671875 C5.35714844 29.81300781 5.31976562 28.98929688 5.28125 28.140625 C5.25095703 27.39329102 5.22066406 26.64595703 5.18945312 25.87597656 C5.10309233 23.91028455 5.10309233 23.91028455 4 22 C0.37 30.91 -3.26 39.82 -7 49 C-11.29 49 -15.58 49 -20 49 C-17.64052878 40.27583417 -14.2025465 32.17955461 -10.5625 23.9375 C-9.9832039 22.61415983 -9.4044249 21.29059317 -8.82617188 19.96679688 C-5.91008204 13.29970976 -2.96286431 6.64642534 0 0 Z M34 18 C35 20 35 20 35 20 Z " fill="#ED741B" transform="translate(561,1036)"/>
<path d="M0 0 C3.96 0 7.92 0 12 0 C11.3756494 2.97930406 10.75053509 5.95844461 10.125 8.9375 C9.86396484 10.18370117 9.86396484 10.18370117 9.59765625 11.45507812 C9.33662109 12.69741211 9.33662109 12.69741211 9.0703125 13.96484375 C8.89508057 14.79935059 8.71984863 15.63385742 8.53930664 16.49365234 C7.85936498 19.65358042 7.12734353 22.80066185 6.38110352 25.94555664 C5.74928578 29.35154399 5.81488377 32.54449706 6 36 C7.02208912 37.24301985 7.02208912 37.24301985 9.1796875 37.1328125 C10.06914062 37.13023438 10.95859375 37.12765625 11.875 37.125 C12.75929688 37.12757812 13.64359375 37.13015625 14.5546875 37.1328125 C17.13906291 37.10048585 17.13906291 37.10048585 20 36 C22.99959591 28.57580331 24.50626348 20.7459096 26.1875 12.9375 C26.46013672 11.69033203 26.73277344 10.44316406 27.01367188 9.15820312 C27.68015319 6.10642026 28.34068365 3.05333882 29 0 C32.96 0 36.92 0 41 0 C40.34815989 7.30827793 38.98276474 14.29701088 37.3125 21.4375 C37.08111328 22.50548828 36.84972656 23.57347656 36.61132812 24.67382812 C34.56361105 33.42608102 31.64572753 41.89946303 23.875 47.0625 C16.92502409 50.98407275 8.1283906 51.31782173 0.4765625 49.3515625 C-3.20100309 47.75202654 -4.79348877 46.30663789 -7.0625 42.9375 C-9.98361141 34.11023375 -6.07734628 23.09474263 -4 14.4375 C-3.72671875 13.26380859 -3.4534375 12.09011719 -3.171875 10.88085938 C-1.15318293 2.30636587 -1.15318293 2.30636587 0 0 Z " fill="#ED741B" transform="translate(313,1036)"/>
<path d="M0 0 C1.69631544 0.15355009 3.39136556 0.33875298 5.07421875 0.6015625 C7.29145198 11.36929624 9.40522893 22.15133543 11.32421875 32.9765625 C11.49920898 33.94408447 11.67419922 34.91160645 11.85449219 35.90844727 C12.0146582 36.82553467 12.17482422 37.74262207 12.33984375 38.6875 C12.48196289 39.4923584 12.62408203 40.2972168 12.77050781 41.12646484 C13.11479831 43.93226632 13.07421875 46.77471658 13.07421875 49.6015625 C9.11421875 49.6015625 5.15421875 49.6015625 1.07421875 49.6015625 C0.57921875 45.1465625 0.57921875 45.1465625 0.07421875 40.6015625 C-6.19578125 40.6015625 -12.46578125 40.6015625 -18.92578125 40.6015625 C-19.91578125 43.0765625 -19.91578125 43.0765625 -20.92578125 45.6015625 C-21.58578125 46.9215625 -22.24578125 48.2415625 -22.92578125 49.6015625 C-27.21578125 49.6015625 -31.50578125 49.6015625 -35.92578125 49.6015625 C-34.46652204 45.95341448 -33.23218342 43.28887771 -31.16015625 40.07421875 C-30.60690674 39.20941895 -30.05365723 38.34461914 -29.48364258 37.45361328 C-28.25582558 35.55907756 -27.02644079 33.66555715 -25.7956543 31.77294922 C-22.48790912 26.66890364 -19.28542261 21.54677692 -16.2734375 16.26171875 C-15.68014648 15.25036865 -15.08685547 14.23901855 -14.47558594 13.19702148 C-13.33849482 11.252813 -12.23214696 9.29021406 -11.16113281 7.30883789 C-8.04330144 2.07943656 -6.30189055 0.02217911 0 0 Z M-3.92578125 15.6015625 C-5.32821798 17.70670009 -6.67068542 19.81925534 -7.98828125 21.9765625 C-8.36533203 22.57984375 -8.74238281 23.183125 -9.13085938 23.8046875 C-11.23785263 26.968903 -11.23785263 26.968903 -11.92578125 30.6015625 C-8.62578125 30.6015625 -5.32578125 30.6015625 -1.92578125 30.6015625 C-1.83540026 25.44984627 -2.07896992 20.68243046 -2.92578125 15.6015625 C-3.25578125 15.6015625 -3.58578125 15.6015625 -3.92578125 15.6015625 Z " fill="#ED741B" transform="translate(667.92578125,1035.3984375)"/>
<path d="M0 0 C9.9 0 19.8 0 30 0 C29.34 3.3 28.68 6.6 28 10 C22.06 10 16.12 10 10 10 C9.34 12.97 8.68 15.94 8 19 C13.28 19 18.56 19 24 19 C23.125 28.875 23.125 28.875 22 30 C19.13732433 30.07325168 16.299281 30.09238205 13.4375 30.0625 C12.63119141 30.05798828 11.82488281 30.05347656 10.99414062 30.04882812 C8.99606244 30.03700518 6.99802217 30.01906914 5 30 C4.67 32.64 4.34 35.28 4 38 C9.61 38.33 15.22 38.66 21 39 C20.34 42.3 19.68 45.6 19 49 C9.1 49 -0.8 49 -11 49 C-7.85413591 32.51567219 -3.99820975 16.30039359 0 0 Z " fill="#ED741B" transform="translate(786,1036)"/>
<path d="M0 0 C4.80003001 4.07275273 4.80003001 4.07275273 5.3828125 7.796875 C5.659266 13.28908452 4.74301841 16.47264077 1.0625 20.75 C-2.41610999 23.82077295 -5.70037639 25.71438915 -10 27.4375 C-11.02222656 27.85386719 -12.04445313 28.27023437 -13.09765625 28.69921875 C-17.85437267 30.45926925 -21.57774972 30.8635975 -26.6875 30.8125 C-27.85796875 30.80347656 -29.0284375 30.79445313 -30.234375 30.78515625 C-31.12640625 30.77355469 -32.0184375 30.76195312 -32.9375 30.75 C-34.74054662 23.98857519 -32.91619036 18.95709128 -29.9375 12.75 C-26.43745853 7.01222711 -22.43205111 2.37537261 -16.25 -0.5 C-10.71556772 -1.75307901 -5.29771257 -2.25434577 0 0 Z " fill="#1B1D39" transform="translate(553.9375,373.25)"/>
<path d="M0 0 C13.2 0 26.4 0 40 0 C39 8 39 8 38 10 C33.38 10 28.76 10 24 10 C23.73316406 11.69769531 23.46632813 13.39539062 23.19140625 15.14453125 C22.03832381 22.05794624 20.53007674 28.86383177 18.9375 35.6875 C18.66873047 36.86505859 18.39996094 38.04261719 18.12304688 39.25585938 C17.86458984 40.37154297 17.60613281 41.48722656 17.33984375 42.63671875 C17.10644287 43.64436279 16.87304199 44.65200684 16.63256836 45.69018555 C16 48 16 48 15 49 C12.98035801 49.07244053 10.95832876 49.08377188 8.9375 49.0625 C7.28041016 49.04896484 7.28041016 49.04896484 5.58984375 49.03515625 C4.73519531 49.02355469 3.88054688 49.01195312 3 49 C4.11897822 43.92752687 5.24003987 38.85552043 6.36303711 33.78393555 C6.74479594 32.05847649 7.12598455 30.33289117 7.5065918 28.60717773 C8.05367668 26.12710714 8.60280875 23.64749744 9.15234375 21.16796875 C9.3221727 20.39599655 9.49200165 19.62402435 9.66697693 18.82865906 C10.33316179 15.83035573 11.02794094 12.91617718 12 10 C7.38 10 2.76 10 -2 10 C-1.34 6.7 -0.68 3.4 0 0 Z " fill="#ED741B" transform="translate(717,1036)"/>
<path d="M0 0 C13.2 0 26.4 0 40 0 C39 8 39 8 38 10 C33.38 10 28.76 10 24 10 C23.73316406 11.69769531 23.46632813 13.39539062 23.19140625 15.14453125 C22.03832381 22.05794624 20.53007674 28.86383177 18.9375 35.6875 C18.66873047 36.86505859 18.39996094 38.04261719 18.12304688 39.25585938 C17.86458984 40.37154297 17.60613281 41.48722656 17.33984375 42.63671875 C17.10644287 43.64436279 16.87304199 44.65200684 16.63256836 45.69018555 C16 48 16 48 15 49 C12.98035801 49.07244053 10.95832876 49.08377188 8.9375 49.0625 C7.28041016 49.04896484 7.28041016 49.04896484 5.58984375 49.03515625 C4.73519531 49.02355469 3.88054687 49.01195312 3 49 C4.11897822 43.92752687 5.24003987 38.85552043 6.36303711 33.78393555 C6.74479594 32.05847649 7.12598455 30.33289117 7.5065918 28.60717773 C8.05367668 26.12710714 8.60280875 23.64749744 9.15234375 21.16796875 C9.3221727 20.39599655 9.49200165 19.62402435 9.66697693 18.82865906 C10.33316179 15.83035573 11.02794094 12.91617718 12 10 C7.38 10 2.76 10 -2 10 C-1.34 6.7 -0.68 3.4 0 0 Z " fill="#ED741B" transform="translate(442,1036)"/>
<path d="M0 0 C3.96 0 7.92 0 12 0 C9.97900793 9.69646195 7.93853378 19.38845245 5.8125 29.0625 C5.56258301 30.21274658 5.56258301 30.21274658 5.30761719 31.38623047 C4.11700437 36.76599126 4.11700437 36.76599126 3 39 C8.61 39 14.22 39 20 39 C19.125 47.875 19.125 47.875 18 49 C15.85441173 49.08775605 13.70595579 49.10695219 11.55859375 49.09765625 C10.25341797 49.09443359 8.94824219 49.09121094 7.60351562 49.08789062 C6.2148431 49.07953401 4.82617123 49.07106905 3.4375 49.0625 C2.04492344 49.05748666 0.65234519 49.05292347 -0.74023438 49.04882812 C-4.1601987 49.03699434 -7.58007844 49.0205088 -11 49 C-9.61259969 39.6410826 -7.61478564 30.46227522 -5.48608398 21.25097656 C-4.93067843 18.84545505 -4.3819867 16.43846769 -3.83398438 14.03125 C-3.48216122 12.49730624 -3.12996194 10.96344869 -2.77734375 9.4296875 C-2.61378891 8.71207245 -2.45023407 7.9944574 -2.28172302 7.25509644 C-1.11544057 2.23088114 -1.11544057 2.23088114 0 0 Z " fill="#ED741B" transform="translate(386,1036)"/>
<path d="M0 0 C0.99 0.99 0.99 0.99 2 2 C1.9375 4.4375 1.9375 4.4375 1 7 C-3.51748198 10.50101966 -8.94623933 11.51284924 -14.3828125 12.8828125 C-15.89788895 13.27241653 -15.89788895 13.27241653 -17.443573 13.66989136 C-19.5792019 14.21670146 -21.71588032 14.75942667 -23.85351562 15.29833984 C-27.09572711 16.11760313 -30.33306794 16.95432224 -33.5703125 17.79296875 C-35.65337486 18.3239808 -37.73670044 18.85396154 -39.8203125 19.3828125 C-41.25372482 19.75468185 -41.25372482 19.75468185 -42.71609497 20.13406372 C-58.66362464 24.11212512 -58.66362464 24.11212512 -65 22 C-65.25 19.6875 -65.25 19.6875 -65 17 C-61.64946354 13.6840944 -57.33728641 12.5891056 -52.9375 11.25 C-51.72163208 10.87355347 -51.72163208 10.87355347 -50.48120117 10.48950195 C-42.97350178 8.21091414 -35.4011151 6.17731416 -27.8125 4.1875 C-26.6670874 3.88553711 -25.5216748 3.58357422 -24.34155273 3.27246094 C-16.25091949 1.19138382 -8.41519204 -0.50491152 0 0 Z " fill="#000001" transform="translate(908,1046)"/>
<path d="M0 0 C3.96 0 7.92 0 12 0 C8.67203996 16.41242406 4.84819917 32.70355791 1 49 C-2.96 49 -6.92 49 -11 49 C-9.56559404 39.64256633 -7.61618639 30.46833653 -5.48608398 21.25097656 C-4.93067843 18.84545505 -4.3819867 16.43846769 -3.83398438 14.03125 C-3.48216122 12.49730624 -3.12996194 10.96344869 -2.77734375 9.4296875 C-2.61378891 8.71207245 -2.45023407 7.9944574 -2.28172302 7.25509644 C-1.11544057 2.23088114 -1.11544057 2.23088114 0 0 Z " fill="#ED741B" transform="translate(511,1036)"/>
<path d="M0 0 C3.84013903 3.33925133 6.85487118 6.07704315 7.25 11.3125 C7.00678074 14.89998406 6.30110814 17.6659104 5 21 C3.89208856 17.67626569 3.6051599 14.62671318 3.28125 11.15625 C3.04643927 8.82120171 3.04643927 8.82120171 2 6 C-8.92889273 0.82315608 -21.97660585 1.78503623 -33.15625 5.7421875 C-40.40704531 8.94927004 -45.90799215 13.55941491 -49 21 C-50.04077751 26.77158435 -48.94112727 29.42151572 -46 34.4375 C-43.12542877 39.36728724 -41.50618802 43.32351448 -43 49 C-45.13779234 52.83125922 -48.37517182 55.58344788 -52 58 C-51.154375 58.845625 -50.30875 59.69125 -49.4375 60.5625 C-47.00572884 63.42461268 -46.9910727 63.81550241 -47.1875 67.875 C-47.455625 68.90625 -47.72375 69.9375 -48 71 C-50.475 71.99 -50.475 71.99 -53 73 C-52.67 72.01 -52.34 71.02 -52 70 C-51.49968794 66.58428147 -51.49968794 66.58428147 -52 63 C-54.27110728 60.14515489 -54.27110728 60.14515489 -57 58 C-59 56 -59 56 -59.125 53.375 C-59.08375 52.59125 -59.0425 51.8075 -59 51 C-57 50 -57 50 -54.125 50.1875 C-50.93577632 50.26740355 -50.93577632 50.26740355 -48.5625 48.3125 C-46.80288829 46.15412813 -46.80288829 46.15412813 -46.9375 43.75 C-48.19722325 40.48953983 -49.9040111 37.7655183 -51.84375 34.8671875 C-54.55577665 30.48763096 -54.5670596 25.98202367 -54 21 C-51.16401315 11.72324784 -43.68360323 5.86215211 -35.515625 1.2890625 C-24.94431238 -4.12791446 -10.78194595 -5.89955533 0 0 Z " fill="#222038" transform="translate(905,376)"/>
<path d="M0 0 C0.93344238 0.01651611 1.86688477 0.03303223 2.82861328 0.05004883 C26.36807586 0.63581791 46.37870817 5.79113831 63.203125 23.01953125 C65.1875 25.375 65.1875 25.375 65.1875 27.375 C62.0392563 25.91920622 59.40551121 24.12841525 56.625 22.0625 C43.383736 12.77241376 26.73221409 8.21282114 10.6015625 8.27734375 C9.89977875 8.2787587 9.197995 8.28017365 8.47494507 8.28163147 C6.25408496 8.2871871 4.03332916 8.29973108 1.8125 8.3125 C0.29817855 8.31752074 -1.2161445 8.32208264 -2.73046875 8.32617188 C-6.42451252 8.33714193 -10.11849606 8.35437551 -13.8125 8.375 C-14.1425 7.055 -14.4725 5.735 -14.8125 4.375 C-10.2366861 -0.4187098 -6.22211953 -0.18155763 0 0 Z " fill="#222038" transform="translate(740.8125,349.625)"/>
<path d="M0 0 C2 2 2 2 2 4.4375 C1 7 1 7 -1.66723633 8.56420898 C-4.91383145 9.96287765 -7.86933546 10.8164387 -11.32421875 11.53515625 C-12.51853516 11.78716797 -13.71285156 12.03917969 -14.94335938 12.29882812 C-16.17892578 12.55083984 -17.41449219 12.80285156 -18.6875 13.0625 C-20.5118457 13.44631836 -20.5118457 13.44631836 -22.37304688 13.83789062 C-44.84055497 18.52917385 -44.84055497 18.52917385 -50 18 C-50.66 17.34 -51.32 16.68 -52 16 C-51.84407043 14.00726318 -51.84407043 14.00726318 -51 12 C-46.20024497 8.27576323 -39.91603597 7.02240441 -34.08203125 5.859375 C-32.85162361 5.60151215 -32.85162361 5.60151215 -31.59635925 5.33843994 C-29.87725763 4.98045368 -28.15703938 4.6277912 -26.43579102 4.28027344 C-23.80666422 3.74882035 -21.18160812 3.20003093 -18.55664062 2.6484375 C-16.8778141 2.30106717 -15.1987841 1.95467849 -13.51953125 1.609375 C-12.34908012 1.36571198 -12.34908012 1.36571198 -11.15498352 1.11712646 C-3.62997613 -0.39133099 -3.62997613 -0.39133099 0 0 Z " fill="#000000" transform="translate(902,1022)"/>
<path d="M0 0 C0.98419922 -0.00773437 1.96839844 -0.01546875 2.98242188 -0.0234375 C3.93052734 -0.02085937 4.87863281 -0.01828125 5.85546875 -0.015625 C6.71164795 -0.01336914 7.56782715 -0.01111328 8.44995117 -0.00878906 C11.04761775 0.27575435 12.64573421 0.79281304 14.8125 2.25 C16.20802911 6.61102847 16.0217666 9.40593219 14.0625 13.4375 C12.51355645 16.20731226 10.84857769 18.80670677 8.8125 21.25 C5.14142312 19.90851914 2.11235068 18.24234938 -1.125 16.0625 C-7.54636627 11.88685746 -14.29510064 8.56036407 -21.1875 5.25 C-16.30070691 -1.07408517 -7.15538509 -0.05690167 0 0 Z " fill="#E8731C" transform="translate(834.1875,322.75)"/>
<path d="M0 0 C0.25523437 0.79265259 0.25523437 0.79265259 0.515625 1.60131836 C5.77550691 18.48796809 5.77550691 18.48796809 18.5 30.0625 C19.325 30.371875 20.15 30.68125 21 31 C21 31.33 21 31.66 21 32 C10.94636287 32.65567199 1.97877484 29.00678496 -6 23 C-10.52119316 18.77674378 -14.18993581 15.31406196 -15 9 C-13.75482035 7.86966702 -12.50363348 6.74594964 -11.25 5.625 C-10.55390625 4.99851562 -9.8578125 4.37203125 -9.140625 3.7265625 C-6.02145458 1.21073527 -4.04406365 0 0 0 Z " fill="#F9F9F9" transform="translate(724,396)"/>
<path d="M0 0 C1.16402344 -0.02126953 1.16402344 -0.02126953 2.3515625 -0.04296875 C4.375 0.1875 4.375 0.1875 6.375 2.1875 C6.5 4.5625 6.5 4.5625 5.375 7.1875 C-0.56937826 10.65618754 -6.44712621 12.41413998 -13.125 13.9375 C-14.02347656 14.15792969 -14.92195312 14.37835937 -15.84765625 14.60546875 C-28.74433226 17.62783387 -28.74433226 17.62783387 -33.625 15.1875 C-33.6875 12.9375 -33.6875 12.9375 -32.625 10.1875 C-24.51535726 4.68526138 -9.7434472 0.08146695 0 0 Z " fill="#000001" transform="translate(922.625,1067.8125)"/>
<path d="M0 0 C0 0.33 0 0.66 0 1 C-0.9701001 1.09498779 -1.9402002 1.18997559 -2.93969727 1.2878418 C-26.16408682 3.49507207 -26.16408682 3.49507207 -49.125 7.5 C-50.43319702 7.78363403 -50.43319702 7.78363403 -51.76782227 8.07299805 C-57.06084342 9.31282818 -61.96638019 11.07668314 -66.96435547 13.21289062 C-69 14 -69 14 -71 14 C-69.94978671 15.60987523 -69.94978671 15.60987523 -68 17 C-65.48629571 17.41316846 -63.2193228 17.61018819 -60.6875 17.6875 C-59.89859375 17.72020996 -59.1096875 17.75291992 -58.296875 17.78662109 C-48.70362347 18.11556241 -39.09793913 18.10354863 -29.5 18.125 C-28.25722794 18.12915421 -28.25722794 18.12915421 -26.98934937 18.13339233 C-18.69838096 18.15356401 -10.50662525 18.1112923 -2.25341797 17.22265625 C0.89827404 16.91124313 4.02277479 16.9034707 7.1875 16.9375 C8.29480469 16.94652344 9.40210938 16.95554687 10.54296875 16.96484375 C11.35378906 16.97644531 12.16460938 16.98804688 13 17 C-1.76045985 25.51564991 -28.18394356 22.51730008 -45 22 C-45.7523291 21.98066406 -46.5046582 21.96132813 -47.27978516 21.94140625 C-55.85062094 21.69418808 -63.91715214 21.15767275 -72 18 C-72.33 16.35 -72.66 14.7 -73 13 C-71.27457385 12.24143427 -69.5443359 11.49381568 -67.8125 10.75 C-66.84957031 10.33234375 -65.88664062 9.9146875 -64.89453125 9.484375 C-54.78760015 5.47878525 -44.63353948 3.15891663 -33.875 1.75 C-32.62050049 1.58016602 -31.36600098 1.41033203 -30.07348633 1.23535156 C-19.9986805 -0.04747134 -10.13763572 -0.45448927 0 0 Z " fill="#1B0D03" transform="translate(1093,997)"/>
<path d="M0 0 C1.4478463 -0.01429802 1.4478463 -0.01429802 2.92494202 -0.02888489 C4.48274635 -0.02751778 4.48274635 -0.02751778 6.07202148 -0.02612305 C7.15007553 -0.03040817 8.22812958 -0.0346933 9.33885193 -0.03910828 C11.62270405 -0.0448517 13.90657446 -0.04535175 16.19042969 -0.04101562 C19.65584333 -0.03787557 23.12038649 -0.06124599 26.58569336 -0.08666992 C28.81030167 -0.08894514 31.03491225 -0.08964538 33.25952148 -0.08862305 C34.28388809 -0.09783279 35.3082547 -0.10704254 36.36366272 -0.11653137 C47.45330477 -0.0465675 56.72967056 2.4739497 65.63061523 9.1496582 C67.13061523 11.2746582 67.13061523 11.2746582 67.31811523 14.0246582 C65.04481241 20.24632909 61.1093817 24.48800468 55.14233398 27.32543945 C49.5694696 29.66101657 43.82750114 31.02433869 37.94311523 32.3371582 C36.81196289 32.59319824 35.68081055 32.84923828 34.51538086 33.11303711 C27.09044233 34.74490315 19.66091972 36.10790614 12.13061523 37.1496582 C10.83474487 37.32960327 10.83474487 37.32960327 9.51269531 37.51318359 C3.69832847 38.24642004 -2.01279998 38.40082399 -7.86938477 38.2746582 C-7.86938477 37.9446582 -7.86938477 37.6146582 -7.86938477 37.2746582 C-6.30764526 37.04915283 -6.30764526 37.04915283 -4.71435547 36.8190918 C31.38580979 33.94440171 31.38580979 33.94440171 62.19311523 18.2746582 C64.35878076 15.58409223 64.35878076 15.58409223 63.97827148 13.2512207 C62.36969822 9.50035401 58.63371348 8.05461083 55.13061523 6.2746582 C45.99523125 2.82734349 35.64980532 3.12822348 25.99389648 2.95825195 C24.98844284 2.93747086 23.9829892 2.91668976 22.94706726 2.89527893 C19.7791433 2.83062302 16.61114653 2.77129479 13.44311523 2.7121582 C11.2770925 2.66889284 9.11107675 2.6252762 6.94506836 2.58129883 C1.67365782 2.47502963 -3.59782288 2.3731179 -8.86938477 2.2746582 C-5.78868634 0.48903575 -3.54606174 0.01930797 0 0 Z " fill="#100802" transform="translate(1108.869384765625,987.725341796875)"/>
<path d="M0 0 C-2.36077227 2.36077227 -3.80182592 2.66398103 -7.00390625 3.515625 C-8.04345459 3.79470703 -9.08300293 4.07378906 -10.15405273 4.36132812 C-11.84123413 4.8012207 -11.84123413 4.8012207 -13.5625 5.25 C-14.71242432 5.55357422 -15.86234863 5.85714844 -17.04711914 6.16992188 C-20.69500429 7.12566927 -24.34647017 8.06607308 -28 9 C-29.7958252 9.45922852 -29.7958252 9.45922852 -31.62792969 9.92773438 C-35.06138026 10.79813345 -38.49823432 11.6528977 -41.9375 12.5 C-43.53476929 12.9007373 -43.53476929 12.9007373 -45.16430664 13.30957031 C-46.15035889 13.54772461 -47.13641113 13.78587891 -48.15234375 14.03125 C-49.01851318 14.24330078 -49.88468262 14.45535156 -50.77709961 14.67382812 C-53 15 -53 15 -56 14 C-46.88456363 10.26915377 -37.72393561 7.23020319 -28.1875 4.75 C-27.24640381 4.50427246 -26.30530762 4.25854492 -25.33569336 4.00537109 C-7.87050841 -0.42543289 -7.87050841 -0.42543289 0 0 Z " fill="#151934" transform="translate(905,1050)"/>
<path d="M0 0 C0.66 1.32 1.32 2.64 2 4 C-3.80530973 9.95808104 -3.80530973 9.95808104 -8.5625 10.125 C-12 10 -12 10 -13 9 C-13.04063832 7.33382885 -13.042721 5.66611905 -13 4 C-4.738041 -0.59225513 -4.738041 -0.59225513 0 0 Z " fill="#010204" transform="translate(851,1075)"/>
<path d="M0 0 C1.50110321 0.00022659 1.50110321 0.00022659 3.03253174 0.00045776 C4.10557556 0.01078033 5.17861938 0.02110291 6.28417969 0.03173828 C7.38832214 0.03456818 8.4924646 0.03739807 9.63006592 0.04031372 C13.15550589 0.05150589 16.68069154 0.07660903 20.20605469 0.10205078 C22.59667602 0.11208181 24.98730133 0.12120745 27.37792969 0.12939453 C33.23739142 0.15144209 39.09670488 0.18491025 44.95605469 0.22705078 C44.62605469 1.21705078 44.29605469 2.20705078 43.95605469 3.22705078 C26.46605469 2.89705078 8.97605469 2.56705078 -9.04394531 2.22705078 C-5.23077591 0.32046608 -4.02336845 -0.02032004 0 0 Z " fill="#231208" transform="translate(1109.0439453125,987.77294921875)"/>
<path d="M0 0 C0.66 0.66 1.32 1.32 2 2 C1.8125 4.5 1.8125 4.5 1 7 C-2.16942884 9.11295256 -2.99629953 9.25250929 -6.625 9.1875 C-7.42164063 9.18105469 -8.21828125 9.17460938 -9.0390625 9.16796875 C-11 9 -11 9 -12 8 C-12.375 5.625 -12.375 5.625 -12 3 C-8.24524002 -0.29963756 -4.8630082 -0.45877436 0 0 Z " fill="#020306" transform="translate(959,1066)"/>
<path d="M0 0 C0.75 2.25 0.75 2.25 1 5 C-0.5 7.3125 -0.5 7.3125 -3 9 C-6.75 9.25 -6.75 9.25 -10 9 C-10.33 7.35 -10.66 5.7 -11 4 C-7.26280719 0.48264206 -5.13496308 -0.47767098 0 0 Z " fill="#010103" transform="translate(919,1005)"/>
<path d="M0 0 C-5.57615904 5.57615904 -17.33101171 6.37553616 -25 7.75 C-26.05779663 7.94130493 -26.05779663 7.94130493 -27.13696289 8.13647461 C-31.13417061 8.81465308 -34.94814413 9.1266205 -39 9 C-35.62693068 6.75128712 -33.04788889 6.16536317 -29.1015625 5.2734375 C-28.42958832 5.12089508 -27.75761414 4.96835266 -27.0652771 4.81118774 C-25.64544333 4.49052831 -24.22489867 4.17300269 -22.80371094 3.85839844 C-20.63790768 3.37786387 -18.47517894 2.88500789 -16.3125 2.390625 C-14.92985448 2.07998499 -13.54704686 1.77006545 -12.1640625 1.4609375 C-10.91061035 1.18040527 -9.6571582 0.89987305 -8.36572266 0.61083984 C-5.46981667 0.08526631 -2.92871816 -0.13030461 0 0 Z " fill="#141731" transform="translate(899,1026)"/>
<path d="M0 0 C-3.64501224 0.6505237 -7.291145 1.29454906 -10.9375 1.9375 C-11.95908203 2.11990234 -12.98066406 2.30230469 -14.03320312 2.49023438 C-21.84905844 3.86362748 -29.60438447 5.17458613 -37.5625 5.0625 C-38.83287109 5.04896484 -38.83287109 5.04896484 -40.12890625 5.03515625 C-40.74636719 5.02355469 -41.36382813 5.01195312 -42 5 C-42 4.67 -42 4.34 -42 4 C-36.66408119 3.09242214 -31.32571529 2.20176775 -25.984375 1.32666016 C-24.16784792 1.02660881 -22.35207531 0.721952 -20.53710938 0.41259766 C-17.92763122 -0.03135623 -15.31588512 -0.45865905 -12.703125 -0.8828125 C-11.48728729 -1.09516037 -11.48728729 -1.09516037 -10.24688721 -1.3117981 C-3.28414468 -2.41299832 -3.28414468 -2.41299832 0 0 Z " fill="#1C0E03" transform="translate(1143,1021)"/>
<path d="M0 0 C-1 2 -1 2 -3.05371094 2.77783203 C-3.93833008 3.01872559 -4.82294922 3.25961914 -5.734375 3.5078125 C-7.18457031 3.90419922 -7.18457031 3.90419922 -8.6640625 4.30859375 C-9.68242188 4.57800781 -10.70078125 4.84742188 -11.75 5.125 C-12.75289062 5.40214844 -13.75578125 5.67929688 -14.7890625 5.96484375 C-19.32289639 7.18549134 -23.27643973 8.16892624 -28 8 C-24.9947344 4.9947344 -21.3533787 4.20536984 -17.375 2.875 C-16.20130859 2.45927734 -16.20130859 2.45927734 -15.00390625 2.03515625 C-9.78952824 0.27973546 -5.49789885 -0.2893631 0 0 Z " fill="#151934" transform="translate(924,1072)"/>
<path d="M0 0 C-5.01055405 2.89070426 -10.37624801 3.1115141 -16.0546875 3.31640625 C-17.71757813 3.37924805 -17.71757813 3.37924805 -19.4140625 3.44335938 C-20.55617188 3.48267578 -21.69828125 3.52199219 -22.875 3.5625 C-24.0403125 3.60568359 -25.205625 3.64886719 -26.40625 3.69335938 C-29.27072625 3.79901629 -32.13528321 3.90111799 -35 4 C-34.67 3.34 -34.34 2.68 -34 2 C-32.16503906 1.58935547 -32.16503906 1.58935547 -29.765625 1.3671875 C-28.88672607 1.2832373 -28.00782715 1.19928711 -27.10229492 1.11279297 C-26.1610376 1.03432129 -25.21978027 0.95584961 -24.25 0.875 C-23.30165283 0.79008301 -22.35330566 0.70516602 -21.3762207 0.61767578 C-14.23064994 0.0139616 -7.17148009 -0.23949284 0 0 Z " fill="#060300" transform="translate(1106,1014)"/>
<path d="M0 0 C6.6 0 13.2 0 20 0 C18.68 0.33 17.36 0.66 16 1 C16 1.66 16 2.32 16 3 C10.22192976 3.2358396 5.48675196 2.86783046 0 1 C0 0.67 0 0.34 0 0 Z " fill="#371A06" transform="translate(1024,1015)"/>
<path d="M0 0 C0.66 0.33 1.32 0.66 2 1 C1.51523823 5.63866869 -0.26243382 7.91285248 -3.375 11.3125 C-4.16648437 12.19550781 -4.95796875 13.07851563 -5.7734375 13.98828125 C-8 16 -8 16 -11 16 C-10.54109375 15.5153125 -10.0821875 15.030625 -9.609375 14.53125 C-5.40998532 9.94368144 -2.53511826 5.67866491 0 0 Z " fill="#DFDFE3" transform="translate(787,406)"/>
<path d="M0 0 C-0.33 0.99 -0.66 1.98 -1 3 C-4.3 3.33 -7.6 3.66 -11 4 C-11 3.34 -11 2.68 -11 2 C-12.32 1.67 -13.64 1.34 -15 1 C-13.43784452 0.83013455 -11.8752548 0.66426036 -10.3125 0.5 C-9.44238281 0.4071875 -8.57226562 0.314375 -7.67578125 0.21875 C-5.10276661 0.00840136 -2.58015636 -0.03719144 0 0 Z " fill="#190C04" transform="translate(1105,1048)"/>
<path d="M0 0 C0.66 0.33 1.32 0.66 2 1 C1.34 2.65 0.68 4.3 0 6 C2.64960955 9.63094642 5.01824456 11.89851796 9 14 C6 15 6 15 4.2109375 14.25 C0.61434777 11.80125806 -0.79534346 10.69823995 -2.0625 6.375 C-2 3 -2 3 0 0 Z " fill="#231103" transform="translate(984,1008)"/>
<path d="M0 0 C4.62 0 9.24 0 14 0 C14 0.66 14 1.32 14 2 C12.23186888 2.24915939 10.46025018 2.47366632 8.6875 2.6875 C7.70136719 2.81511719 6.71523437 2.94273438 5.69921875 3.07421875 C3 3 3 3 0 0 Z " fill="#0A0604" transform="translate(1080,1050)"/>
<path d="M0 0 C4.29 0 8.58 0 13 0 C9.09224671 1.95387664 7.00312413 2.34762234 2.75 2.625 C1.13351562 2.73714844 1.13351562 2.73714844 -0.515625 2.8515625 C-1.33546875 2.90054688 -2.1553125 2.94953125 -3 3 C-2.01 2.67 -1.02 2.34 0 2 C0 1.34 0 0.68 0 0 Z " fill="#150A02" transform="translate(1093,1014)"/>
<path d="M0 0 C0 0.33 0 0.66 0 1 C-1.95565258 1.38873828 -3.91466504 1.76060833 -5.875 2.125 C-6.96554687 2.33382812 -8.05609375 2.54265625 -9.1796875 2.7578125 C-10.57574219 2.87769531 -10.57574219 2.87769531 -12 3 C-12.66 2.34 -13.32 1.68 -14 1 C-8.83430559 -0.79217969 -5.48946087 -1.12029814 0 0 Z " fill="#3A1D08" transform="translate(1052,1002)"/>
<path d="M0 0 C0.33 0.99 0.66 1.98 1 3 C-0.9375 6.1875 -0.9375 6.1875 -3 9 C-3.99 8.67 -4.98 8.34 -6 8 C-4.02 5.36 -2.04 2.72 0 0 Z " fill="#170B02" transform="translate(1175,1000)"/>
</svg>
