<?xml version="1.0" encoding="UTF-8"?>
<svg version="1.1" xmlns="http://www.w3.org/2000/svg" width="500" height="500">
<path d="M0 0 C5.9250768 0.11394378 8.81674578 1.91181974 13 6 C16 9.5 16 9.5 16 12 C16.99 11.690625 17.98 11.38125 19 11.0625 C25.66929602 8.978345 32.69552494 8.81325798 39.625 8.8125 C40.79361572 8.80174438 40.79361572 8.80174438 41.98583984 8.79077148 C47.10602461 8.80385187 51.63071501 9.46461839 56.625 10.5625 C59.9205135 11.25721003 59.9205135 11.25721003 63 11 C66.50724314 8.50872252 68.5734561 5.49617912 71 2 C74.45029042 -0.30019361 75.94554358 -0.43132515 80 0 C82.98429286 4.47643929 82.37896799 8.74268048 82 14 C81.47352945 16.54399406 80.87912268 19.02402833 80.14453125 21.515625 C79.96914853 24.53031179 80.98595004 26.43833256 82.25415039 29.12597656 C83.49497369 32.24367202 83.56615288 35.42595623 83.8125 38.75 C85.00395824 50.42548479 90.85560101 57.93719206 97.8828125 67.08203125 C105.15686196 77.10733558 107.15366087 86.88398722 108 99 C107.01 98.34 106.02 97.68 105 97 C104.80664062 97.89203125 104.61328125 98.7840625 104.4140625 99.703125 C104.15367187 100.87359375 103.89328125 102.0440625 103.625 103.25 C103.36976563 104.41015625 103.11453125 105.5703125 102.8515625 106.765625 C102.14203595 109.46052401 101.36903611 111.59525832 100 114 C99.01 114 98.02 114 97 114 C96.690625 115.2065625 96.690625 115.2065625 96.375 116.4375 C94.59815597 121.04114136 92.27320493 125.28044894 89 129 C88.31679688 129.16886719 87.63359375 129.33773437 86.9296875 129.51171875 C85.97449219 129.75341797 85.97449219 129.75341797 85 130 C83.94556501 131.83713975 83.94556501 131.83713975 83 134 C81.71816519 135.46342808 80.3806979 136.87945429 79 138.25 C78.29875 138.95640625 77.5975 139.6628125 76.875 140.390625 C75 142 75 142 73 142 C72.67 140.68 72.34 139.36 72 138 C71.26394531 138.56589844 70.52789062 139.13179687 69.76953125 139.71484375 C68.79371094 140.44832031 67.81789063 141.18179688 66.8125 141.9375 C65.84957031 142.66839844 64.88664062 143.39929688 63.89453125 144.15234375 C61.11040201 145.92952746 59.24332415 146.62645444 56 147 C56.33 145.35 56.66 143.7 57 142 C56.40832031 142.52851563 55.81664062 143.05703125 55.20703125 143.6015625 C54.41683594 144.26929688 53.62664062 144.93703125 52.8125 145.625 C52.03519531 146.29789063 51.25789063 146.97078125 50.45703125 147.6640625 C48 149 48 149 45.32421875 148.2734375 C44.55722656 147.85320312 43.79023438 147.43296875 43 147 C42.34 146.67 41.68 146.34 41 146 C41 147.32 41 148.64 41 150 C37.54074837 148.7508258 34.85306797 147.32472205 32 145 C31.67 146.32 31.34 147.64 31 149 C29.64455078 148.22462891 29.64455078 148.22462891 28.26171875 147.43359375 C27.07060933 146.76769793 25.8791866 146.10236234 24.6875 145.4375 C24.09259766 145.09525391 23.49769531 144.75300781 22.88476562 144.40039062 C21.29717441 143.52233738 19.65006069 142.75413732 18 142 C17.01 142.33 16.02 142.66 15 143 C12.65068272 142.0230854 10.48760799 141.00153163 8.25 139.8125 C7.62037354 139.48515869 6.99074707 139.15781738 6.34204102 138.82055664 C4.55721398 137.88826711 2.77841275 136.94446779 1 136 C0.24074219 135.62101563 -0.51851562 135.24203125 -1.30078125 134.8515625 C-6.83372306 131.9808122 -10.56159396 127.76350518 -13 122 C-13.99 122 -14.98 122 -16 122 C-18.20536179 117.9728176 -19.45660208 114.56454251 -20 110 C-20.99 111.32 -21.98 112.64 -23 114 C-23 107.73 -23 101.46 -23 95 C-24.32 96.32 -25.64 97.64 -27 99 C-26.42589407 80.9443684 -18.65071006 68.35264998 -8.93286133 53.6315918 C-5.16413156 47.87966826 -4.53752904 42.66049465 -3.83789062 35.98046875 C-3.3802583 31.98455722 -2.52766799 28.69787444 -1 25 C-1.20066436 23.19402073 -1.41280824 21.3881291 -1.69921875 19.59375 C-2.10370832 16.10568414 -2.16168371 12.6318512 -2.1875 9.125 C-2.20167969 7.82820312 -2.21585938 6.53140625 -2.23046875 5.1953125 C-2 2 -2 2 0 0 Z " fill="#1A1D3B" transform="translate(210,177)"/>
<path d="M0 0 C0 0.66 0 1.32 0 2 C4.62 2 9.24 2 14 2 C13.67 2.66 13.34 3.32 13 4 C11.15600586 4.31542969 11.15600586 4.31542969 8.71484375 4.421875 C7.80355713 4.47424316 6.89227051 4.52661133 5.95336914 4.58056641 C4.95813232 4.63647949 3.96289551 4.69239258 2.9375 4.75 C-18.60474008 6.33067816 -38.10554705 11.76215224 -56 24 C-54.96875 23.525625 -53.9375 23.05125 -52.875 22.5625 C-50.39550917 21.48272174 -48.60148208 20.94420749 -45.875 20.5625 C-42.88986495 20.20967219 -42.88986495 20.20967219 -40.66015625 18.12109375 C-33.11290022 12.10323762 -23.14672618 10.41669769 -13.875 8.6875 C-12.51677124 8.43033203 -12.51677124 8.43033203 -11.13110352 8.16796875 C-4.70993283 7.05376652 1.49045342 6.80918941 8 7 C8 7.66 8 8.32 8 9 C8.91136719 9.02578125 9.82273438 9.0515625 10.76171875 9.078125 C21.68527223 9.55637013 32.10746455 11.3418087 42.80273438 13.56567383 C44.68372547 13.93748307 46.57961511 14.23250515 48.4765625 14.51171875 C51 15 51 15 53.25 16.8125 C56.55686904 19.44296401 59.8642541 20.68954689 63.79296875 22.16796875 C67.46664125 23.55291077 69.94571701 25.53574895 73 28 C74.99489512 29.50678248 76.99510076 31.00655465 79 32.5 C82.72064969 35.27150436 86.39265686 38.08229599 90 41 C89.67 42.32 89.34 43.64 89 45 C88.44054687 44.45472656 87.88109375 43.90945312 87.3046875 43.34765625 C62.17250206 19.71047219 31.06443023 12.92413027 -2.59863281 13.82080078 C-25.29523791 15.01655933 -51.12269423 25.89163157 -67 42 C-68.5159375 43.175625 -68.5159375 43.175625 -70.0625 44.375 C-90.45858394 61.80120448 -102.00145224 89.74497061 -104.75 115.875 C-104.85636659 117.582054 -104.93988672 119.29069207 -105 121 C-105.03996094 121.92554688 -105.07992187 122.85109375 -105.12109375 123.8046875 C-105.75985455 152.13560785 -95.29278003 181.06086932 -76 201.9375 C-74.03381191 203.99395159 -72.028651 206.00532162 -70 208 C-69.17757812 208.82113281 -68.35515625 209.64226562 -67.5078125 210.48828125 C-60.22349751 217.40240974 -51.82370962 222.74121737 -43.08203125 227.6328125 C-42.05142578 228.30957031 -42.05142578 228.30957031 -41 229 C-41 229.66 -41 230.32 -41 231 C-40.45214844 231.15855469 -39.90429688 231.31710937 -39.33984375 231.48046875 C-34.70502786 232.84453652 -30.11090354 234.28887405 -25.53759766 235.84814453 C-18.43730932 238.26807941 -11.31551553 240.32437912 -4 242 C-5.98 242.99 -5.98 242.99 -8 244 C7.16888784 244.20927045 21.9801735 244.26160606 37 242 C38.85307058 241.78213253 40.70709061 241.57195884 42.5625 241.375 C43.696875 241.25125 44.83125 241.1275 46 241 C40.13698861 247.92543627 26.56152552 249.59048055 18 251 C14.31419095 251.20721654 10.68528336 251.19940411 7 251 C7.33 251.66 7.66 252.32 8 253 C12.62 253 17.24 253 22 253 C21.67 253.66 21.34 254.32 21 255 C14.67889041 256.16325975 8.409638 256.11996572 2 256.0625 C1.03449219 256.05798828 0.06898438 256.05347656 -0.92578125 256.04882812 C-3.28392089 256.03715417 -5.64192602 256.02078021 -8 256 C-8 256.33 -8 256.66 -8 257 C-9.98 257 -11.96 257 -14 257 C-14.33 256.34 -14.66 255.68 -15 255 C-16.79407795 254.33395488 -16.79407795 254.33395488 -18.97265625 253.88671875 C-19.79056641 253.69013672 -20.60847656 253.49355469 -21.45117188 253.29101562 C-23.16353665 252.89526341 -24.8770546 252.50446109 -26.59179688 252.11914062 C-31.81823043 250.85224987 -35.72715068 249.12796509 -40.17993164 246.12573242 C-42.73508609 244.54534112 -45.26183869 243.9192752 -48.1875 243.3125 C-51.99163031 242.4998221 -55.41355351 241.50786946 -59 240 C-60.03125 239.67 -61.0625 239.34 -62.125 239 C-65 238 -65 238 -68 236 C-68 235.34 -68 234.68 -68 234 C-67.01 234 -66.02 234 -65 234 C-65.61746094 233.6596875 -66.23492187 233.319375 -66.87109375 232.96875 C-72.55035189 229.71852008 -77.29037112 226.19106119 -81.9921875 221.63671875 C-84.09335145 219.92390222 -85.40533508 219.55910144 -88 219 C-90.89823753 215.92062263 -92.87913861 212.52505038 -94.9296875 208.84375 C-98.32448556 202.64574515 -98.32448556 202.64574515 -104 199 C-105.54314982 196.77202038 -106.87976976 194.61245172 -108.1875 192.25 C-108.57824707 191.54770264 -108.96899414 190.84540527 -109.37158203 190.12182617 C-116.25357487 177.3253171 -121.474726 163.32439907 -124 149 C-124.226875 147.845 -124.45375 146.69 -124.6875 145.5 C-125.17814988 140.00472132 -125.07461231 134.51302054 -125 129 C-124.67 129 -124.34 129 -124 129 C-123.80303551 125.89635771 -123.61906738 122.79207808 -123.4375 119.6875 C-123.38142578 118.80642578 -123.32535156 117.92535156 -123.26757812 117.01757812 C-123.19506836 115.74624023 -123.19506836 115.74624023 -123.12109375 114.44921875 C-123.05039673 113.27879028 -123.05039673 113.27879028 -122.97827148 112.0847168 C-122.89561279 109.80262292 -122.89561279 109.80262292 -124 107 C-122.07852103 90.74299253 -116.35863649 74.99700667 -108 61 C-107.01 61 -106.02 61 -105 61 C-103.28094515 59.0474204 -103.28094515 59.0474204 -101.6875 56.5 C-100.76904297 55.13681641 -100.76904297 55.13681641 -99.83203125 53.74609375 C-99.22746094 52.83988281 -98.62289062 51.93367188 -98 51 C-96.97306342 49.51056899 -95.93273954 48.0302161 -94.875 46.5625 C-94.22144531 45.63630859 -94.22144531 45.63630859 -93.5546875 44.69140625 C-92 43 -92 43 -89.57421875 41.59375 C-86.57338405 39.73587358 -85.04398055 37.75831692 -82.9375 34.9375 C-79.48375735 30.5971422 -75.89585565 26.8344181 -71.6875 23.25 C-70.70136719 22.40953125 -69.71523437 21.5690625 -68.69921875 20.703125 C-66 19 -66 19 -64.06640625 19.4296875 C-63.38449219 19.61789063 -62.70257813 19.80609375 -62 20 C-59.61737462 19.0551658 -57.4952525 18.07636757 -55.25 16.875 C-54.62311279 16.55168701 -53.99622559 16.22837402 -53.3503418 15.89526367 C-50.06605908 14.17933971 -46.89947565 12.35978739 -43.8125 10.3125 C-39.28499102 7.35636073 -34.22807892 5.35542787 -29 4 C-28.01 4.495 -28.01 4.495 -27 5 C-27 5.33 -27 5.66 -27 6 C-22.22346183 4.61989368 -17.51868596 3.25603344 -12.9375 1.3125 C-8.63864144 -0.37539539 -4.5582192 -0.2848887 0 0 Z M-60 25 C-60.33 25.66 -60.66 26.32 -61 27 C-60.01 26.67 -59.02 26.34 -58 26 C-58.66 25.67 -59.32 25.34 -60 25 Z M-63 27 C-63.33 27.66 -63.66 28.32 -64 29 C-63.01 28.67 -62.02 28.34 -61 28 C-61.66 27.67 -62.32 27.34 -63 27 Z M-66 29 C-66.33 29.66 -66.66 30.32 -67 31 C-66.01 30.67 -65.02 30.34 -64 30 C-64.66 29.67 -65.32 29.34 -66 29 Z M-69 31 C-69.99 32.485 -69.99 32.485 -71 34 C-69.68 33.34 -68.36 32.68 -67 32 C-67.66 31.67 -68.32 31.34 -69 31 Z M-107 62 C-106 64 -106 64 -106 64 Z M-110 68 C-109 70 -109 70 -109 70 Z M-111 70 C-111.83764268 71.95649397 -112.66999059 73.91525556 -113.5 75.875 C-113.9640625 76.96554688 -114.428125 78.05609375 -114.90625 79.1796875 C-116.12052456 81.80661929 -116.12052456 81.80661929 -116 84 C-115.01 84 -114.02 84 -113 84 C-112.46877637 82.23225581 -111.95035927 80.46065917 -111.4375 78.6875 C-111.14746094 77.70136719 -110.85742188 76.71523437 -110.55859375 75.69921875 C-109.74791709 72.91971661 -109.74791709 72.91971661 -111 70 Z M-117 84 C-116 86 -116 86 -116 86 Z M-120 94 C-119 96 -119 96 -119 96 Z M-121 98 C-120 101 -120 101 -120 101 Z M-122 103 C-122 104.65 -122 106.3 -122 108 C-121.67 108 -121.34 108 -121 108 C-121 106.35 -121 104.7 -121 103 C-121.33 103 -121.66 103 -122 103 Z M-20 250 C-20 250.33 -20 250.66 -20 251 C-18.35 251 -16.7 251 -15 251 C-15 250.67 -15 250.34 -15 250 C-16.65 250 -18.3 250 -20 250 Z " fill="#181C3A" transform="translate(245,124)"/>
<path d="M0 0 C0.66 0 1.32 0 2 0 C3.46864749 2.18352885 4.83712547 4.37023584 6.1875 6.625 C11.52454353 15.57181425 11.52454353 15.57181425 20.2578125 20.61328125 C21.81495782 20.90877912 23.37355208 21.19675807 24.93359375 21.4765625 C28.46708376 22.37162424 29.82927273 24.12525308 32 27 C33.52071294 29.77822556 34.98119348 32.58409576 36.44140625 35.39453125 C38.51348699 38.85838553 40.70376335 40.72402708 44 43 C40.71023192 44.09658936 39.28696233 43.79953138 36 43 C37.91135386 46.53600465 39.62642766 48.78972846 43 51 C39.62537285 50.45276317 37.91765 49.9451 35 48 C35.05220703 49.23363281 35.05220703 49.23363281 35.10546875 50.4921875 C35.3538169 60.73359197 34.38058013 69.13616648 27.72265625 77.25 C20.82961215 84.2524575 11.65161486 87.0904011 2 87.375 C-8.57384687 87.05006745 -17.07079563 83.52292056 -24.82421875 76.30078125 C-31.13499136 69.50103836 -31.29141057 62.4526645 -31.125 53.5625 C-31.11597656 52.64017578 -31.10695312 51.71785156 -31.09765625 50.76757812 C-31.0742766 48.51144191 -31.04150916 46.25586316 -31 44 C-32.13501953 45.21236328 -32.13501953 45.21236328 -33.29296875 46.44921875 C-36.32250836 49.30389316 -37.92741747 49.71586634 -42 50 C-41.6596875 49.58492188 -41.319375 49.16984375 -40.96875 48.7421875 C-37.94043524 44.89236182 -35.39811007 41.00008752 -33.07226562 36.68139648 C-28.50435538 28.22700749 -24.41702932 23.70636774 -14.9921875 20.87109375 C-8.74198937 18.13816398 -6.42285674 13.62556703 -3.6875 7.75 C-3.32849609 7.00492188 -2.96949219 6.25984375 -2.59960938 5.4921875 C-1.72199241 3.66674422 -0.85945177 1.8340658 0 0 Z " fill="#F9F9FA" transform="translate(249,222)"/>
<path d="M0 0 C2.32421875 0.12109375 2.32421875 0.12109375 5 1 C7.01953125 3.28515625 7.01953125 3.28515625 8.8125 6.0625 C9.41707031 6.98160156 10.02164062 7.90070313 10.64453125 8.84765625 C11.09183594 9.55792969 11.53914063 10.26820313 12 11 C12.99 8.03 13.98 5.06 15 2 C15.99 2.33 16.98 2.66 18 3 C18.0272367 5.52090778 18.04695207 8.04151457 18.0625 10.5625 C18.07087891 11.26697266 18.07925781 11.97144531 18.08789062 12.69726562 C18.10882603 17.24024798 17.74800682 21.51784892 17 26 C14.75 26.375 14.75 26.375 12 26 C8.73440332 22.06207459 6.88155986 17.70389966 5 13 C4.93941406 13.69867188 4.87882812 14.39734375 4.81640625 15.1171875 C4.69072266 16.48230469 4.69072266 16.48230469 4.5625 17.875 C4.48128906 18.77992188 4.40007812 19.68484375 4.31640625 20.6171875 C4 23 4 23 3 25 C1.35 24.67 -0.3 24.34 -2 24 C-2.19193154 7.62184189 -2.19193154 7.62184189 -1 1 C-0.67 0.67 -0.34 0.34 0 0 Z " fill="#ED751C" transform="translate(361,170)"/>
<path d="M0 0 C0 1.32 0 2.64 0 4 C-3.4019487 6.09350689 -6.05272412 6.17942163 -10 6 C-10 8.31 -10 10.62 -10 13 C-8.72125 12.979375 -7.4425 12.95875 -6.125 12.9375 C-2.25 12.875 -2.25 12.875 0 14 C-0.33 14.99 -0.66 15.98 -1 17 C-3.06640625 17.73046875 -3.06640625 17.73046875 -5.5625 18.1875 C-6.38878906 18.34605469 -7.21507812 18.50460937 -8.06640625 18.66796875 C-8.70449219 18.77753906 -9.34257812 18.88710938 -10 19 C-10.33 20.32 -10.66 21.64 -11 23 C-7.37 23 -3.74 23 0 23 C0 24.32 0 25.64 0 27 C-1.91503674 27.22281874 -3.83216506 27.42771076 -5.75 27.625 C-7.35101563 27.79902344 -7.35101563 27.79902344 -8.984375 27.9765625 C-12 28 -12 28 -16 26 C-16 18.08 -16 10.16 -16 2 C-11.36703792 -0.31648104 -5.09716729 -0.16442475 0 0 Z " fill="#ED751C" transform="translate(377,334)"/>
<path d="M0 0 C0 1.32 0 2.64 0 4 C-3.4019487 6.09350689 -6.05272412 6.17942163 -10 6 C-10 8.31 -10 10.62 -10 13 C-8.72125 12.979375 -7.4425 12.95875 -6.125 12.9375 C-2.25 12.875 -2.25 12.875 0 14 C-0.33 14.99 -0.66 15.98 -1 17 C-3.06640625 17.73046875 -3.06640625 17.73046875 -5.5625 18.1875 C-6.38878906 18.34605469 -7.21507812 18.50460938 -8.06640625 18.66796875 C-8.70449219 18.77753906 -9.34257812 18.88710937 -10 19 C-10.33 20.32 -10.66 21.64 -11 23 C-7.37 23 -3.74 23 0 23 C0 24.32 0 25.64 0 27 C-1.91503674 27.22281874 -3.83216506 27.42771076 -5.75 27.625 C-7.35101563 27.79902344 -7.35101563 27.79902344 -8.984375 27.9765625 C-12 28 -12 28 -16 26 C-16 18.08 -16 10.16 -16 2 C-11.36703792 -0.31648104 -5.09716729 -0.16442475 0 0 Z " fill="#ED751C" transform="translate(377,136)"/>
<path d="M0 0 C1.67542976 0.28604898 3.34385343 0.61781233 5 1 C3.49087042 5.98012761 0.44338151 9.24259942 -3 13 C-2.6390625 13.45890625 -2.278125 13.9178125 -1.90625 14.390625 C-1.4421875 15.00421875 -0.978125 15.6178125 -0.5 16.25 C-0.0359375 16.85328125 0.428125 17.4565625 0.90625 18.078125 C2 20 2 20 2 24 C-0.1875 24.375 -0.1875 24.375 -3 24 C-4.99022836 22.16038352 -6.38989899 20.20813852 -8 18 C-8.39832031 18.5775 -8.79664063 19.155 -9.20703125 19.75 C-9.73683594 20.4925 -10.26664062 21.235 -10.8125 22 C-11.33457031 22.7425 -11.85664063 23.485 -12.39453125 24.25 C-12.92433594 24.8275 -13.45414062 25.405 -14 26 C-14.99 26 -15.98 26 -17 26 C-16.54166667 24.625 -16.08333333 23.25 -15.625 21.875 C-15.22474609 20.63556641 -15.22474609 20.63556641 -14.81640625 19.37109375 C-14 17 -14 17 -12.5625 13.9375 C-11.80942066 10.00475231 -13.08242559 8.10419998 -15.0546875 4.734375 C-16 3 -16 3 -16 1 C-13.25 0.6875 -13.25 0.6875 -10 1 C-7.625 3.5 -7.625 3.5 -6 6 C-5.195625 5.195625 -4.39125 4.39125 -3.5625 3.5625 C-2.375 2.375 -1.1875 1.1875 0 0 Z " fill="#ED751C" transform="translate(375,269)"/>
<path d="M0 0 C0.33 0 0.66 0 1 0 C1.18175781 1.22976563 1.36351562 2.45953125 1.55078125 3.7265625 C1.80416139 5.35945672 2.05809708 6.99226481 2.3125 8.625 C2.43044922 9.43324219 2.54839844 10.24148438 2.66992188 11.07421875 C3.42596528 15.8431079 4.33984686 19.86703036 7 24 C10.3060486 25.42494892 10.3060486 25.42494892 14 25 C17.72942405 22.48981073 20.50922881 19.73615679 23 16 C22.74385063 20.35453922 22.42722153 22.49609768 19.5625 25.875 C16.66580813 28.27713472 15.57931076 28.90731028 11.875 29.5 C6.40285461 28.79391672 3.76797446 25.83648309 0 22 C-0.32871094 22.49371094 -0.65742188 22.98742187 -0.99609375 23.49609375 C-3.74719476 27.20150622 -5.8295753 29.46764459 -10.5 30.25 C-13.81107841 30.36725573 -15.78045116 29.93191074 -18.4375 27.9375 C-21.04604405 24.9472178 -22.10890182 22.83172219 -23 19 C-22.36384766 19.6496875 -22.36384766 19.6496875 -21.71484375 20.3125 C-18.592855 23.27667393 -16.67340983 24.86067383 -12.375 25.75 C-8.7277392 24.9394976 -7.32397649 23.84117103 -5.04296875 20.8984375 C-2.48784667 16.24754113 -1.6181359 11.32695133 -0.875 6.125 C-0.70742187 4.97257812 -0.53984375 3.82015625 -0.3671875 2.6328125 C-0.24601562 1.76398438 -0.12484375 0.89515625 0 0 Z " fill="#151515" transform="translate(250,269)"/>
<path d="M0 0 C-0.33 1.65 -0.66 3.3 -1 5 C-2.65 5 -4.3 5 -6 5 C-6.33 11.93 -6.66 18.86 -7 26 C-8.32 26.33 -9.64 26.66 -11 27 C-13 25 -13 25 -13.22705078 23.02880859 C-13.21134033 21.8505249 -13.21134033 21.8505249 -13.1953125 20.6484375 C-13.18564453 19.37226563 -13.18564453 19.37226563 -13.17578125 18.0703125 C-13.15902344 17.18085938 -13.14226562 16.29140625 -13.125 15.375 C-13.11597656 14.4778125 -13.10695313 13.580625 -13.09765625 12.65625 C-13.0740497 10.43723414 -13.0411231 8.21874923 -13 6 C-15.31 5.67 -17.62 5.34 -20 5 C-20 3.68 -20 2.36 -20 1 C-13.29980211 0.29867087 -6.73742646 -0.11044961 0 0 Z " fill="#ED751C" transform="translate(379,202)"/>
<path d="M0 0 C0.66 0.33 1.32 0.66 2 1 C2 2.32 2 3.64 2 5 C1.01 5.495 1.01 5.495 0 6 C-0.47139323 9.17360813 -0.47139323 9.17360813 -0.625 12.875 C-0.69976562 14.13054687 -0.77453125 15.38609375 -0.8515625 16.6796875 C-0.94567952 18.78493654 -1 20.89264822 -1 23 C0.65 23 2.3 23 4 23 C4 23.99 4 24.98 4 26 C-0.49656104 28.24828052 -4.07872966 28.16682272 -9 28 C-9 26.68 -9 25.36 -9 24 C-8.01 24 -7.02 24 -6 24 C-6 18.06 -6 12.12 -6 6 C-7.32 5.67 -8.64 5.34 -10 5 C-9.625 3.0625 -9.625 3.0625 -9 1 C-6.01405576 -0.49297212 -3.29146376 -0.11755228 0 0 Z " fill="#ED751C" transform="translate(372,300)"/>
<path d="M0 0 C0.66 0.33 1.32 0.66 2 1 C2 2.32 2 3.64 2 5 C1.01 5.495 1.01 5.495 0 6 C-0.47139323 9.17360813 -0.47139323 9.17360813 -0.625 12.875 C-0.69976562 14.13054687 -0.77453125 15.38609375 -0.8515625 16.6796875 C-0.94567952 18.78493654 -1 20.89264822 -1 23 C0.65 23 2.3 23 4 23 C4 23.99 4 24.98 4 26 C-0.49656104 28.24828052 -4.07872966 28.16682272 -9 28 C-9 26.68 -9 25.36 -9 24 C-8.01 24 -7.02 24 -6 24 C-6 18.06 -6 12.12 -6 6 C-7.32 5.67 -8.64 5.34 -10 5 C-9.625 3.0625 -9.625 3.0625 -9 1 C-6.01405576 -0.49297212 -3.29146376 -0.11755228 0 0 Z " fill="#ED751C" transform="translate(372,234)"/>
<path d="M0 0 C4.89008528 0.0940401 8.00036522 1.12550145 11.64453125 4.45703125 C13.93776999 7.06749033 15.42468028 9.90994977 17 13 C14.09399739 14.25664978 12.20395416 15 9 15 C8.5875 14.071875 8.175 13.14375 7.75 12.1875 C6.02895948 9.05274762 4.85759033 7.96606938 2 6 C2.19078125 6.96421875 2.3815625 7.9284375 2.578125 8.921875 C2.79984375 10.18515625 3.0215625 11.4484375 3.25 12.75 C3.48203125 14.00296875 3.7140625 15.2559375 3.953125 16.546875 C4 20 4 20 2.046875 22.453125 C1.37140625 22.96359375 0.6959375 23.4740625 0 24 C-1.66299329 18.91203242 -2.27157596 14.59767144 -2.25 9.1875 C-2.25515625 7.88167969 -2.2603125 6.57585937 -2.265625 5.23046875 C-2 2 -2 2 0 0 Z " fill="#E3711D" transform="translate(210,177)"/>
<path d="M0 0 C3.32821753 4.9923263 2.51014495 10.93473249 1.546875 16.72265625 C1.08008677 18.82653747 0.54676158 20.91547147 0 23 C-1.32 22.34 -2.64 21.68 -4 21 C-3.690625 20.21625 -3.38125 19.4325 -3.0625 18.625 C-1.73664193 14.10148422 -1.35188915 9.68568186 -1 5 C-1.66 5 -2.32 5 -3 5 C-3.433125 6.4540625 -3.433125 6.4540625 -3.875 7.9375 C-5 11 -5 11 -7 12 C-7.33 10.68 -7.66 9.36 -8 8 C-8.99 10.31 -9.98 12.62 -11 15 C-12.98 14.34 -14.96 13.68 -17 13 C-15.64969935 8.89882089 -13.94596151 6.57364891 -10.75 3.6875 C-10.00234375 2.99011719 -9.2546875 2.29273438 -8.484375 1.57421875 C-5.39326158 -0.38445847 -3.59536426 -0.53135908 0 0 Z " fill="#DA6C1C" transform="translate(290,177)"/>
<path d="M0 0 C5 1 5 1 7 3 C7.66 2.01 8.32 1.02 9 0 C10.32 0.33 11.64 0.66 13 1 C13 4.96 13 8.92 13 13 C12.01 13.33 11.02 13.66 10 14 C9.67 12.02 9.34 10.04 9 8 C8.360625 8.185625 7.72125 8.37125 7.0625 8.5625 C6.381875 8.706875 5.70125 8.85125 5 9 C4.67 8.67 4.34 8.34 4 8 C3.67 9.65 3.34 11.3 3 13 C2.01 13 1.02 13 0 13 C0 8.71 0 4.42 0 0 Z " fill="#181C3A" transform="translate(391,251)"/>
<path d="M0 0 C1.17949219 0.19464844 2.35898438 0.38929688 3.57421875 0.58984375 C4.92966797 0.82380859 4.92966797 0.82380859 6.3125 1.0625 C6 4.4375 6 4.4375 5.3125 8.0625 C2.3125 10.0625 2.3125 10.0625 -0.375 9.6875 C-1.138125 9.48125 -1.90125 9.275 -2.6875 9.0625 C-3.0175 7.7425 -3.3475 6.4225 -3.6875 5.0625 C-5.6675 5.3925 -7.6475 5.7225 -9.6875 6.0625 C-9.0275 4.7425 -8.3675 3.4225 -7.6875 2.0625 C-8.3475 2.0625 -9.0075 2.0625 -9.6875 2.0625 C-9.6875 1.4025 -9.6875 0.7425 -9.6875 0.0625 C-6.00942463 -1.16352512 -3.80506073 -0.64045577 0 0 Z " fill="#160C06" transform="translate(215.6875,224.9375)"/>
<path d="M0 0 C21.68479418 0.70579016 21.68479418 0.70579016 31 4 C31.33 4.66 31.66 5.32 32 6 C31.67 6.66 31.34 7.32 31 8 C26.13729087 7.34913546 21.36880931 6.50027249 16.5625 5.5 C11.38822662 4.43856143 6.25642494 3.53636989 1 3 C0.67 2.01 0.34 1.02 0 0 Z " fill="#181C3A" transform="translate(263,127)"/>
<path d="M0 0 C1.65 0.33 3.3 0.66 5 1 C6.32 5.29 7.64 9.58 9 14 C8.01 14 7.02 14 6 14 C5.34 13.01 4.68 12.02 4 11 C1.94074861 10.27617533 1.94074861 10.27617533 0 10 C-0.103125 10.639375 -0.20625 11.27875 -0.3125 11.9375 C-0.539375 12.618125 -0.76625 13.29875 -1 14 C-1.99 14.33 -2.98 14.66 -4 15 C-2.9318153 9.88634986 -1.76892524 4.92772031 0 0 Z M2 5 C3 7 3 7 3 7 Z " fill="#181C3A" transform="translate(395,268)"/>
<path d="M0 0 C0.66 0.33 1.32 0.66 2 1 C-6.72794837 9.42978864 -17.15461607 16.93653864 -29 20 C-27.71819653 16.15458959 -26.54705952 15.97580918 -23 14.1875 C-19.19357269 12.18987105 -15.48648886 10.14661338 -11.875 7.8125 C-11.15054687 7.34457031 -10.42609375 6.87664062 -9.6796875 6.39453125 C-7.70955532 5.00851938 -7.70955532 5.00851938 -7 2 C-5.824375 1.7834375 -5.824375 1.7834375 -4.625 1.5625 C-2.03578982 1.12201075 -2.03578982 1.12201075 0 0 Z " fill="#181C3A" transform="translate(329,342)"/>
<path d="M0 0 C0.99 0 1.98 0 3 0 C3.33 3.3 3.66 6.6 4 10 C4.66 6.7 5.32 3.4 6 0 C6.99 0 7.98 0 9 0 C9.02708567 1.60407328 9.04643483 3.2082785 9.0625 4.8125 C9.07410156 5.70582031 9.08570313 6.59914062 9.09765625 7.51953125 C9 10 9 10 8 13 C5.6875 13.625 5.6875 13.625 3 14 C2.01 13.34 1.02 12.68 0 12 C-0.29296875 9.1796875 -0.29296875 9.1796875 -0.1875 5.875 C-0.16042969 4.77929688 -0.13335937 3.68359375 -0.10546875 2.5546875 C-0.07066406 1.71164063 -0.03585937 0.86859375 0 0 Z " fill="#181C3A" transform="translate(393,179)"/>
<path d="M0 0 C0.66 0 1.32 0 2 0 C2.3690205 10.55808656 2.3690205 10.55808656 0 15 C-2.95409701 13.62845496 -5.44008376 12.01136276 -8 10 C-7.6875 7.125 -7.6875 7.125 -7 4 C-6.01 3.34 -5.02 2.68 -4 2 C-3.67 3.32 -3.34 4.64 -3 6 C-2.01 4.02 -1.02 2.04 0 0 Z " fill="#060302" transform="translate(287,182)"/>
<path d="M0 0 C0 0.66 0 1.32 0 2 C-1.98 2.33 -3.96 2.66 -6 3 C-6 3.99 -6 4.98 -6 6 C-4.02 6 -2.04 6 0 6 C0 6.66 0 7.32 0 8 C-1.98 8.33 -3.96 8.66 -6 9 C-6 9.66 -6 10.32 -6 11 C-4.02 11 -2.04 11 0 11 C0 11.66 0 12.32 0 13 C-6.75 14.125 -6.75 14.125 -9 13 C-9 8.71 -9 4.42 -9 0 C-3 -1 -3 -1 0 0 Z " fill="#181C3A" transform="translate(402,305)"/>
<path d="M0 0 C2 3 2 3 3 6 C3.33 5.34 3.66 4.68 4 4 C4.66 4 5.32 4 6 4 C6.2954439 9.02254631 5.98514628 11.89542386 3 16 C-1.71354196 14.42881935 -4.29212409 11.06181386 -7 7 C-4.69 7.33 -2.38 7.66 0 8 C0 5.36 0 2.72 0 0 Z " fill="#2D304C" transform="translate(249,239)"/>
<path d="M0 0 C0.73049561 0.03834961 1.46099121 0.07669922 2.21362305 0.11621094 C6.46000544 0.4196302 10.15190982 1.23051097 14.125 2.75 C11.59705819 4.01397091 10.05603515 3.45896562 7.34619141 3.02539062 C-6.2989103 1.33362598 -20.60126907 2.2932042 -34.03515625 4.99609375 C-37.98361264 5.77132476 -41.8795096 6.29120902 -45.875 6.75 C-34.12358865 -1.08427423 -13.65254 -0.71982256 0 0 Z " fill="#181C3A" transform="translate(259.875,118.25)"/>
<path d="M0 0 C4.31606353 0.35967196 5.84923667 1.14803091 8.75 4.3125 C8.75 5.6325 8.75 6.9525 8.75 8.3125 C4.20194365 8.49085515 0.8705746 8.31035435 -3.25 6.3125 C-2.59 5.6525 -1.93 4.9925 -1.25 4.3125 C-2.24 3.3225 -3.23 2.3325 -4.25 1.3125 C-3.25 0.3125 -3.25 0.3125 0 0 Z " fill="#F4F4F5" transform="translate(213.25,215.6875)"/>
<path d="M0 0 C4.06402139 0.52393307 6.13633304 1.59729777 9.125 4.375 C9.78757812 4.98085937 10.45015625 5.58671875 11.1328125 6.2109375 C11.74898438 6.80132812 12.36515625 7.39171875 13 8 C13.57492187 8.52851563 14.14984375 9.05703125 14.7421875 9.6015625 C16 11 16 11 16 13 C10.82380256 11.5765457 6.11364681 9.48150384 2 6 C0.5 2.6875 0.5 2.6875 0 0 Z " fill="#181C3A" transform="translate(312,141)"/>
<path d="M0 0 C1 1 1 1 1.0625 3.5625 C1.041875 4.366875 1.02125 5.17125 1 6 C-1.43387753 7.21693876 -3.41838846 7.31959896 -6.125 7.5625 C-7.03507812 7.64628906 -7.94515625 7.73007812 -8.8828125 7.81640625 C-9.93082031 7.90728516 -9.93082031 7.90728516 -11 8 C-10.67842796 5.02545866 -10.37860258 3.40664722 -8.3125 1.1875 C-5.37441941 -0.32124409 -3.25963068 -0.28974495 0 0 Z " fill="#0F0F0F" transform="translate(269,254)"/>
<path d="M0 0 C0 0.66 0 1.32 0 2 C-1.32 2 -2.64 2 -4 2 C-4 5.63 -4 9.26 -4 13 C-4.99 13 -5.98 13 -7 13 C-7.12117188 12.28972656 -7.24234375 11.57945312 -7.3671875 10.84765625 C-7.53476562 9.92855469 -7.70234375 9.00945312 -7.875 8.0625 C-8.03742188 7.14597656 -8.19984375 6.22945313 -8.3671875 5.28515625 C-8.57601563 4.53105469 -8.78484375 3.77695312 -9 3 C-9.66 2.67 -10.32 2.34 -11 2 C-11 1.34 -11 0.68 -11 0 C-6.98195309 -0.84098656 -3.98196457 -1.05404945 0 0 Z " fill="#181C3A" transform="translate(403,287)"/>
<path d="M0 0 C0 0.66 0 1.32 0 2 C-1.32 2 -2.64 2 -4 2 C-4 5.63 -4 9.26 -4 13 C-4.99 13 -5.98 13 -7 13 C-7.12117188 12.28972656 -7.24234375 11.57945312 -7.3671875 10.84765625 C-7.53476562 9.92855469 -7.70234375 9.00945312 -7.875 8.0625 C-8.03742188 7.14597656 -8.19984375 6.22945312 -8.3671875 5.28515625 C-8.57601563 4.53105469 -8.78484375 3.77695313 -9 3 C-9.66 2.67 -10.32 2.34 -11 2 C-11 1.34 -11 0.68 -11 0 C-6.98195309 -0.84098656 -3.98196457 -1.05404945 0 0 Z " fill="#181C3A" transform="translate(403,215)"/>
<path d="M0 0 C4.01636782 0.22734157 6.32292551 0.42709081 9.4375 3.0625 C10.2109375 4.0215625 10.2109375 4.0215625 11 5 C10.67 5.99 10.34 6.98 10 8 C8.35369672 7.85957123 6.70795821 7.71250671 5.0625 7.5625 C3.68771484 7.44068359 3.68771484 7.44068359 2.28515625 7.31640625 C0 7 0 7 -1 6 C-1.125 3.5 -1.125 3.5 -1 1 C-0.67 0.67 -0.34 0.34 0 0 Z " fill="#0C0C0C" transform="translate(231,254)"/>
<path d="M0 0 C3.3 0 6.6 0 10 0 C8.515 2.475 8.515 2.475 7 5 C7.99 5 8.98 5 10 5 C9.34 6.32 8.68 7.64 8 9 C4.93795671 8.66896829 3.39949096 8.39949096 1.1875 6.1875 C0 4 0 4 0 0 Z " fill="#050608" transform="translate(277,226)"/>
<path d="M0 0 C1.98 0 3.96 0 6 0 C5.34 3.63 4.68 7.26 4 11 C4.99 11 5.98 11 7 11 C6.67 11.99 6.34 12.98 6 14 C3.69 14 1.38 14 -1 14 C-1 13.34 -1 12.68 -1 12 C-0.34 12 0.32 12 1 12 C0.67 8.04 0.34 4.08 0 0 Z " fill="#181C3A" transform="translate(394,232)"/>
<path d="M0 0 C0.99 0 1.98 0 3 0 C3 3.63 3 7.26 3 11 C4.65 10.67 6.3 10.34 8 10 C8 10.99 8 11.98 8 13 C5.36 13 2.72 13 0 13 C-0.19397476 11.02145742 -0.38001321 9.0421352 -0.5625 7.0625 C-0.66691406 5.96035156 -0.77132813 4.85820312 -0.87890625 3.72265625 C-0.91886719 2.82417969 -0.95882813 1.92570313 -1 1 C-0.67 0.67 -0.34 0.34 0 0 Z " fill="#181C3A" transform="translate(394,197)"/>
<path d="M0 0 C0.495 0.165 0.99 0.33 1.5 0.5 C6.05963297 1.41192659 10.55868337 1.48043888 15 0 C14.6875 1.875 14.6875 1.875 14 4 C11 6 11 6 7.5625 5.8125 C4.16000079 5.03649141 2.43895271 4.43895271 0 2 C0 1.34 0 0.68 0 0 Z " fill="#D56B1F" transform="translate(276,234)"/>
<path d="M0 0 C0 3.4168368 -0.78842504 4.82735462 -2.375 7.8125 C-4.27056487 11.48012268 -5.84782351 15.01975393 -7 19 C-7.33 19 -7.66 19 -8 19 C-8.35892545 13.95510345 -8.58426255 10.14765859 -6.25 5.5625 C-4.28244749 3.32167631 -2.49984673 1.60704432 0 0 Z " fill="#E06F1D" transform="translate(270,216)"/>
<path d="M0 0 C0.66 0.33 1.32 0.66 2 1 C1.37609375 1.67417969 0.7521875 2.34835938 0.109375 3.04296875 C-2.35137078 6.49256978 -2.97513621 9.16697871 -3.75 13.3125 C-3.99234375 14.56675781 -4.2346875 15.82101563 -4.484375 17.11328125 C-4.65453125 18.06589844 -4.8246875 19.01851562 -5 20 C-5.66 19.67 -6.32 19.34 -7 19 C-7.54298306 12.4842033 -6.88377017 7.41649552 -3 2 C-2.01 1.34 -1.02 0.68 0 0 Z " fill="#C06222" transform="translate(264,207)"/>
<path d="M0 0 C4.43843439 1.39493652 6.9434964 3.51898201 10 7 C11.28317892 10.84953676 11.06643637 13.94738135 11 18 C10.71898437 17.43152344 10.43796875 16.86304688 10.1484375 16.27734375 C7.22565801 10.4814919 4.28639964 4.92142181 0 0 Z " fill="#DFE0E4" transform="translate(231,211)"/>
<path d="M0 0 C5.10960537 1.09491544 7.63493739 3.16071184 10.80859375 7.11328125 C12.42593162 9.67450811 12.85364923 11.99980926 13 15 C8.23436567 10.42499105 3.66740312 5.50110467 0 0 Z " fill="#C86521" transform="translate(230,198)"/>
<path d="M0 0 C-3.18025577 3.68405866 -6.201622 5.11258392 -10.75 6.75 C-11.92046875 7.17796875 -13.0909375 7.6059375 -14.296875 8.046875 C-15.63492188 8.51867187 -15.63492188 8.51867187 -17 9 C-17 8.34 -17 7.68 -17 7 C-5.50959325 -1.83653108 -5.50959325 -1.83653108 0 0 Z " fill="#DADBE0" transform="translate(217,249)"/>
<path d="M0 0 C0.85178626 2.38500154 1.09806909 3.6665651 0.375 6.125 C-1.45394354 8.61901391 -3.04268599 9.20657429 -6 10 C-6.99 9.67 -7.98 9.34 -9 9 C-8.06725891 7.87105124 -7.12859878 6.74699124 -6.1875 5.625 C-5.66542969 4.99851562 -5.14335937 4.37203125 -4.60546875 3.7265625 C-3 2 -3 2 0 0 Z " fill="#F0F0F2" transform="translate(216,262)"/>
<path d="M0 0 C1.3921875 0.3403125 1.3921875 0.3403125 2.8125 0.6875 C2.8125 1.3475 2.8125 2.0075 2.8125 2.6875 C1.8225 2.6875 0.8325 2.6875 -0.1875 2.6875 C0.1425 3.6775 0.4725 4.6675 0.8125 5.6875 C-0.5075 5.6875 -1.8275 5.6875 -3.1875 5.6875 C-3.5175 6.3475 -3.8475 7.0075 -4.1875 7.6875 C-5.1775 7.3575 -6.1675 7.0275 -7.1875 6.6875 C-6.79412881 4.40594707 -6.27463789 2.82049993 -5 0.875 C-3.1875 -0.3125 -3.1875 -0.3125 0 0 Z " fill="#28292C" transform="translate(291.1875,224.3125)"/>
<path d="M0 0 C-0.66 1.98 -1.32 3.96 -2 6 C-4.31 6 -6.62 6 -9 6 C-8.67 4.35 -8.34 2.7 -8 1 C-5.07175348 0.02391783 -3.04386724 -0.08226668 0 0 Z " fill="#181C3A" transform="translate(282,373)"/>
<path d="M0 0 C0.66 0 1.32 0 2 0 C1.125 3.875 1.125 3.875 0 5 C1.65 5.33 3.3 5.66 5 6 C3 8 3 8 0.8359375 8.1953125 C-0.38222656 8.16050781 -0.38222656 8.16050781 -1.625 8.125 C-2.44226563 8.10695312 -3.25953125 8.08890625 -4.1015625 8.0703125 C-4.72804688 8.04710937 -5.35453125 8.02390625 -6 8 C-6 7.01 -6 6.02 -6 5 C-4.36368108 3.95107762 -2.69514137 2.95093297 -1 2 C-0.67 1.34 -0.34 0.68 0 0 Z " fill="#E3E4E7" transform="translate(284,215)"/>
<path d="M0 0 C0 3.78713193 -1.26892594 5.83354401 -3 9.1875 C-3.556875 10.27417969 -4.11375 11.36085937 -4.6875 12.48046875 C-5.120625 13.31191406 -5.55375 14.14335937 -6 15 C-6.33 15 -6.66 15 -7 15 C-7.45675183 9.29060212 -6.62105556 6.44872541 -3 2 C-2.01 1.34 -1.02 0.68 0 0 Z " fill="#D06920" transform="translate(262,195)"/>
<path d="M0 0 C3.26189156 0.5623951 4.91134848 1.4140505 7 4 C7.96070434 6.88211302 8.10581883 8.69850044 8.0625 11.6875 C8.05347656 12.49574219 8.04445312 13.30398437 8.03515625 14.13671875 C8.02355469 14.75160156 8.01195312 15.36648437 8 16 C6.63703919 13.3793715 5.52700733 10.7899873 4.5625 8 C3.43441423 4.91503075 2.18670083 2.49908666 0 0 Z " fill="#D46A1F" transform="translate(229,222)"/>
<path d="M0 0 C3.65938172 1.43164111 7.23988068 2.98934296 10.8125 4.625 C12.27623047 5.29402344 12.27623047 5.29402344 13.76953125 5.9765625 C14.50558594 6.31429687 15.24164063 6.65203125 16 7 C16 7.33 16 7.66 16 8 C9.42367107 7.72015622 5.10707841 5.07639819 0 1 C0 0.67 0 0.34 0 0 Z " fill="#DEDFE3" transform="translate(288,247)"/>
<path d="M0 0 C-0.99 1.485 -0.99 1.485 -2 3 C-5.625 3.6875 -5.625 3.6875 -9 4 C-8.67 3.01 -8.34 2.02 -8 1 C-5.29120665 -0.35439668 -2.99066732 -0.06501451 0 0 Z " fill="#181C3A" transform="translate(308,365)"/>
<path d="M0 0 C0.515625 0.309375 1.03125 0.61875 1.5625 0.9375 C4.66665423 2.29059287 7.65115007 2.61359424 11 3 C9 5 9 5 6.0625 5.3125 C3 5 3 5 1.125 3.625 C0 2 0 2 0 0 Z " fill="#DD6E1E" transform="translate(209,235)"/>
<path d="M0 0 C1.9375 0.625 1.9375 0.625 4 2 C4.75 5.125 4.75 5.125 5 8 C2.20127563 5.47211993 0.54226981 3.79588866 0 0 Z " fill="#D36A1F" transform="translate(240,199)"/>
<path d="M0 0 C2 3 2 3 1.625 5.1875 C1.41875 5.785625 1.2125 6.38375 1 7 C-0.32 6.34 -1.64 5.68 -3 5 C-2.625 3.0625 -2.625 3.0625 -2 1 C-1.34 0.67 -0.68 0.34 0 0 Z " fill="#DB6D1C" transform="translate(289,193)"/>
<path d="M0 0 C0.33 1.32 0.66 2.64 1 4 C-0.8125 5.0625 -0.8125 5.0625 -3 6 C-3.99 5.67 -4.98 5.34 -6 5 C-4.02 3.35 -2.04 1.7 0 0 Z " fill="#E1E1E5" transform="translate(215,275)"/>
<path d="M0 0 C0.33 0 0.66 0 1 0 C1.33 2.97 1.66 5.94 2 9 C1.01 9 0.02 9 -1 9 C-0.67 6.03 -0.34 3.06 0 0 Z " fill="#454545" transform="translate(250,269)"/>
<path d="M0 0 C0 3 0 3 -1.3125 4.625 C-3 6 -3 6 -6 7 C-4.60667426 3.63279613 -3.0210714 2.0140476 0 0 Z " fill="#C06222" transform="translate(270,216)"/>
<path d="M0 0 C0.66 0.33 1.32 0.66 2 1 C-0.3125 2.5625 -0.3125 2.5625 -3 4 C-3.99 3.67 -4.98 3.34 -6 3 C-4.03533587 1.93224776 -2.03144641 0.93446535 0 0 Z " fill="#181C3A" transform="translate(308,353)"/>
<path d="M0 0 C0.66 0.33 1.32 0.66 2 1 C0.35 2.32 -1.3 3.64 -3 5 C-3 4.01 -3 3.02 -3 2 C-2.01 1.34 -1.02 0.68 0 0 Z " fill="#181C3A" transform="translate(327,351)"/>
<path d="M0 0 C-2.35953094 2.35953094 -3.77895617 2.49141413 -7 3 C-7 2.34 -7 1.68 -7 1 C-4.53721199 -0.231394 -2.7204945 -0.07159196 0 0 Z " fill="#181C3A" transform="translate(207,130)"/>
<path d="M0 0 C2.31 0.66 4.62 1.32 7 2 C7 2.33 7 2.66 7 3 C4.69 2.67 2.38 2.34 0 2 C0 1.34 0 0.68 0 0 Z " fill="#181C3A" transform="translate(280,125)"/>
<path d="M0 0 C1.2065625 0.0309375 1.2065625 0.0309375 2.4375 0.0625 C1.7775 0.7225 1.1175 1.3825 0.4375 2.0625 C-1.6875 1.6875 -1.6875 1.6875 -3.5625 1.0625 C-2.5625 0.0625 -2.5625 0.0625 0 0 Z " fill="#181C3A" transform="translate(230.5625,122.9375)"/>
<path d="M0 0 C0.99 0.33 1.98 0.66 3 1 C1.02 1.66 -0.96 2.32 -3 3 C-2.01 2.01 -1.02 1.02 0 0 Z " fill="#181C3A" transform="translate(195,131)"/>
<path d="M0 0 C0 0.99 0 1.98 0 3 C-0.99 3 -1.98 3 -3 3 C-2.01 2.01 -1.02 1.02 0 0 Z " fill="#181C3A" transform="translate(334,338)"/>
<path d="M0 0 C1.32 0.33 2.64 0.66 4 1 C3.01 1.495 3.01 1.495 2 2 C1.34 1.34 0.68 0.68 0 0 Z " fill="#181C3A" transform="translate(203,372)"/>
<path d="M0 0 C0.66 0.33 1.32 0.66 2 1 C0.68 1.33 -0.64 1.66 -2 2 C-1.34 1.34 -0.68 0.68 0 0 Z " fill="#181C3A" transform="translate(296,364)"/>
<path d="M0 0 C1.98 0.99 1.98 0.99 4 2 C2.68 1.67 1.36 1.34 0 1 C0 0.67 0 0.34 0 0 Z " fill="#181C3A" transform="translate(306,135)"/>
<path d="M0 0 C2 1 2 1 2 1 Z " fill="#181C3A" transform="translate(293,126)"/>
<path d="M0 0 C2 1 2 1 2 1 Z " fill="#181C3A" transform="translate(291,125)"/>
<path d="" fill="#181C3A" transform="translate(0,0)"/>
<path d="" fill="#181C3A" transform="translate(0,0)"/>
<path d="" fill="#181C3A" transform="translate(0,0)"/>
<path d="" fill="#181C3A" transform="translate(0,0)"/>
<path d="" fill="#181C3A" transform="translate(0,0)"/>
<path d="" fill="#181C3A" transform="translate(0,0)"/>
</svg>
